<?xml version="1.0" encoding="utf-8"?>
<!-- Generator: Adobe Illustrator 27.1.0, SVG Export Plug-In . SVG Version: 6.00 Build 0)  -->
<svg version="1.1" id="Calque_1" xmlns="http://www.w3.org/2000/svg" xmlns:xlink="http://www.w3.org/1999/xlink" x="0px" y="0px"
	 viewBox="0 0 153 61.5" style="enable-background:new 0 0 153 61.5;" xml:space="preserve">
<style type="text/css">
	.st0{fill:#FFFFFF;}
</style>
<g>
	<path class="st0" d="M23.3,37.3c-1.2,0-2.4,0-3.6,0c-0.4,0-0.8,0.1-1.2,0.3c-0.4,0.2-0.6,0.6-0.5,1c0.1,0.4,0.4,0.5,0.8,0.6
		c0.1,0,0.1,0,0.2,0c0.8,0.2,0.9,0.3,0.7,1.1c-0.4,1.9-0.9,3.8-1.3,5.7c-0.3,1.4-1.2,2-2.6,2c-0.4,0-0.8,0-1.1-0.2
		c-0.5-0.3-0.7-0.8-0.7-1.4c0.1-1,0.3-2,0.5-3c1.1-4.6,2.2-9.2,3.3-13.9c0.2-0.9,0.6-1.8,1.4-2.4c0.3-0.2,0.7-0.3,1.1-0.4
		c0.7,0,1.5,0,2.2,0.2c1.9,0.5,2.8,2,3.2,3.8c0.2,0.7,0.2,1.4,0.2,2.1c0,0.8,0.2,1.2,0.8,1.3c0.7,0.1,1.2-0.3,1.4-1
		c0.2-0.7,0.3-1.4,0.5-2.1c0.4-1.7,0.8-3.4,1.2-5.1c0.1-0.4,0.2-0.8-0.2-1c-0.4-0.3-0.8-0.1-1.2,0.1c-0.3,0.2-0.5,0.4-0.7,0.6
		c-0.3,0.3-0.7,0.3-1.1,0.2c-1.4-0.5-2.8-0.9-4.3-1c-0.3,0-0.3-0.1-0.2-0.4c0.4-1.8,0.8-3.6,1.3-5.4c0-0.1,0.2-0.3,0.3-0.3
		c4.7,0.2,8.7,2,11.5,5.9c0.1,0.2,0.2,0.5,0.1,0.7c-1.6,6.9-3.3,13.9-4.9,20.8c-0.2,1-0.5,2-0.7,3c-0.1,0.2-0.2,0.5-0.4,0.6
		c-3.4,2.9-7.2,4.9-11.7,5.7c-0.8,0.2-1.7,0.2-2.5,0.3c-0.3,0-0.4-0.1-0.3-0.4c0.4-1.7,0.8-3.5,1.2-5.2c0.1-0.3,0.2-0.4,0.4-0.4
		c3-0.2,5.7-1.4,8.2-3.1c0.3-0.2,0.5-0.5,0.5-0.8c0.4-1.9,0.9-3.8,1.3-5.6c0.1-0.6,0.4-0.9,0.9-1.2C27.7,39,28,38.6,28,38
		c0-0.4-0.1-0.6-0.5-0.7c-0.2,0-0.4-0.1-0.7-0.1C25.6,37.3,24.5,37.3,23.3,37.3z"/>
	<path class="st0" d="M88.6,28.6c-14.8,0-29.6,0-44.4,0c-1.9,0-3.2-0.9-4.1-2.5c-1.1-1.9-2.1-3.8-3.2-5.7c-0.9-1.6-2.3-2.7-4-3.4
		c-1.5-0.6-3.2-0.9-4.8-0.9c-1.2,0-2.4,0-3.6,0c-0.4,0-0.5,0-0.4-0.4c0.3-0.9,0-0.7,1-0.8c3.8,0,7.6,0,11.4,0c2.2,0,4.4,0.3,6.3,1.4
		c1.3,0.7,2.3,1.7,3,3c0.7,1.4,1.4,2.8,2.2,4.1c0.7,1.3,1.7,2.3,3.2,2.6c0.3,0.1,0.5,0.1,0.8,0.1c2.8,0,5.6,0.1,8.4,0.1
		c3.9,0.1,7.8,0.1,11.7,0.2c1.9,0,3.8,0.1,5.7,0.1c3.9,0.1,7.8,0.1,11.8,0.2c3.8,0.1,7.6,0.1,11.5,0.2c3.9,0.1,7.9,0.1,11.8,0.2
		c1.9,0,3.8,0.1,5.7,0.1c3.7,0.1,7.4,0.1,11.1,0.2c1.1,0,2.2,0.4,3.3,0.6c0.4,0.1,0.7,0.2,1.1,0.2c0.1,0,0.1,0.1,0.1,0.1
		c-0.1,0-0.1,0-0.2,0c-0.2,0-0.3,0-0.5,0C118.5,28.6,103.5,28.6,88.6,28.6z"/>
	<path class="st0" d="M21.1,19c0.4,0,0.4,0.1,0.3,0.4c-0.4,1.8-0.8,3.5-1.3,5.3c0,0.1-0.2,0.3-0.3,0.3c-4.2,0.4-7.2,2.8-9.6,6
		c-1.9,2.6-3,5.5-3.3,8.7c-0.2,2.4,0,4.7,1.3,6.8c1.3,2,3.1,3.2,5.5,3.4c0.4,0,0.4,0.2,0.3,0.5c-0.4,1.7-0.8,3.5-1.2,5.2
		c-0.1,0.3-0.2,0.4-0.5,0.4c-4.9-0.5-8.8-2.7-11.3-7.1c-0.2-0.3-0.2-0.6-0.1-1C2.6,41,4.3,34.1,5.9,27.2c0.1-0.4,0.3-0.7,0.6-1
		c3.5-3.4,7.5-5.7,12.3-6.7C19.5,19.2,20.3,19.1,21.1,19z"/>
	<path class="st0" d="M94.9,30.3c0.6,0,1.3,0,1.9,0c0.4,0,0.6,0.1,0.7,0.5c0.6,1.9,1.3,3.7,1.9,5.6c0.2,0.6,0.2,0.6,0.6,0.1
		c1.7-2,3.5-3.9,5.2-5.9c0.2-0.2,0.4-0.4,0.7-0.4c1.5,0,2.9,0,4.4,0c0.4,0,0.5,0.1,0.4,0.5c-1.4,5.2-2.8,10.5-4.2,15.7
		c-0.3,1-0.3,1-1.3,1c-1,0-2.1,0-3.1,0c-0.6,0-0.6,0-0.4-0.6c0.8-2.8,1.5-5.7,2.3-8.5c0-0.1,0.1-0.2,0.1-0.3c0-0.1,0-0.2,0-0.2
		c-0.1,0-0.1,0.1-0.2,0.1c-0.1,0.1-0.3,0.3-0.4,0.4c-1.7,1.9-3.5,3.8-5.2,5.7c-0.4,0.4-0.4,0.4-0.6-0.1c-0.7-1.9-1.4-3.8-2.2-5.7
		c0-0.1-0.1-0.2-0.2-0.4c-0.1,0.1-0.2,0.2-0.2,0.4c-0.8,2.9-1.6,5.8-2.3,8.7c-0.1,0.4-0.3,0.6-0.7,0.6c-1.2,0-2.4,0-3.6,0
		c-0.4,0-0.5-0.1-0.4-0.5c1.5-5.4,2.9-10.9,4.4-16.3c0.1-0.3,0.2-0.4,0.5-0.4C93.6,30.3,94.2,30.3,94.9,30.3z"/>
	<path class="st0" d="M142.2,30.3c1.5,0.1,2.9,0.1,4.4,0.2c1.3,0.1,2.6,0.5,3.7,1.3c1.4,1.1,1.8,2.6,1.7,4.3
		c-0.2,2.9-1.9,4.7-4.6,5.5c-0.5,0.1-0.5,0.3-0.3,0.7c0.8,1.6,1.5,3.2,2.2,4.8c0.2,0.3,0.2,0.5-0.3,0.5c-1.4,0-2.9,0-4.3,0
		c-0.3,0-0.5-0.1-0.6-0.4c-0.6-1.5-1.3-2.9-1.9-4.4c-0.1-0.3-0.3-0.4-0.6-0.4c-0.4,0-0.9,0-1.3,0c-0.3,0-0.5,0.1-0.6,0.4
		c-0.4,1.4-0.8,2.9-1.1,4.3c-0.1,0.4-0.2,0.5-0.6,0.5c-1.2,0-2.5,0-3.7,0c-0.6,0-0.6,0-0.4-0.5c1.1-4.2,2.3-8.4,3.4-12.7
		c0.3-1.2,0.6-2.3,0.9-3.5c0.1-0.4,0.2-0.6,0.7-0.5C139.9,30.3,141.1,30.3,142.2,30.3C142.2,30.3,142.2,30.3,142.2,30.3z
		 M142.8,38.5C142.8,38.5,142.8,38.5,142.8,38.5c0.5,0,1.1,0,1.6,0c0.8-0.1,1.5-0.3,2.1-0.9c0.6-0.5,0.8-1.2,0.6-2
		c-0.2-0.8-0.8-1.2-1.5-1.2c-1.1-0.1-2.2-0.1-3.4-0.1c-0.1,0-0.3,0.2-0.3,0.3c-0.3,1.2-0.6,2.3-1,3.5c-0.1,0.3,0,0.4,0.3,0.4
		C141.7,38.5,142.2,38.5,142.8,38.5z"/>
	<path class="st0" d="M124.1,47.5c-2.1,0-4.3,0-6.4,0c-0.4,0-0.5-0.1-0.4-0.5c1.5-5.4,2.9-10.8,4.3-16.2c0.1-0.4,0.3-0.5,0.7-0.5
		c4.2,0,8.5,0,12.7,0c0.5,0,0.5,0,0.4,0.5c-0.3,1-0.6,2-0.8,3.1c-0.1,0.4-0.3,0.5-0.6,0.5c-2.7,0-5.3,0-8,0c-0.4,0-0.6,0.1-0.7,0.5
		c-0.1,0.6-0.3,1.1-0.4,1.6c-0.1,0.4,0,0.5,0.4,0.5c2.4,0,4.8,0,7.1,0c0.6,0,0.6,0,0.4,0.5c-0.2,0.9-0.5,1.8-0.7,2.7
		c-0.1,0.4-0.3,0.5-0.7,0.5c-2.4,0-4.8,0-7.1,0c-0.4,0-0.6,0.1-0.7,0.5c-0.1,0.6-0.3,1.2-0.5,1.7c-0.1,0.4-0.1,0.5,0.4,0.5
		c2.7,0,5.4,0,8.2,0c0.5,0,0.5,0,0.4,0.5c-0.3,1-0.5,2-0.8,3c-0.1,0.5-0.3,0.5-0.7,0.5C128.4,47.5,126.3,47.5,124.1,47.5z"/>
	<path class="st0" d="M40.3,30.3c0.7,0,1.3,0,2,0c0.3,0,0.4,0.1,0.3,0.4c-0.8,2.9-1.6,5.8-2.3,8.7c-0.1,0.3-0.2,0.7-0.2,1
		c-0.3,2.2,1,3.4,3.1,3.1c1.4-0.2,2.3-1,2.8-2.2c0.5-1.2,0.8-2.5,1.2-3.8c0.6-2.2,1.2-4.5,1.8-6.7c0.1-0.4,0.2-0.5,0.6-0.5
		c1.3,0,2.6,0,3.9,0c0.3,0,0.5,0.1,0.4,0.4c-1,3.5-1.9,7.1-2.9,10.6c-0.3,0.9-0.7,1.8-1.1,2.6c-1.3,2.4-3.5,3.6-6.2,3.9
		c-1.7,0.2-3.4,0.1-5-0.5c-2.1-0.9-3.2-2.5-3.4-4.8c-0.1-1.7,0.3-3.3,0.8-4.9c0.6-2.2,1.2-4.4,1.8-6.7c0.1-0.4,0.2-0.6,0.7-0.5
		C39,30.3,39.6,30.3,40.3,30.3z"/>
	<path class="st0" d="M84,47.5c-0.7,0-1.3,0-2,0c-0.3,0-0.5-0.1-0.6-0.5c-0.1-0.7-0.2-1.4-0.3-2.1c0-0.3-0.1-0.5-0.5-0.5
		c-2,0-3.9,0-5.9,0c-0.2,0-0.5,0.2-0.6,0.3c-0.6,0.8-1.1,1.6-1.7,2.4c-0.1,0.2-0.4,0.3-0.6,0.3c-1.4,0-2.9,0-4.3,0
		c-0.1,0-0.2,0-0.3-0.1c0-0.1,0.1-0.2,0.1-0.3C71.4,41.6,75.2,36,79,30.5c0.1-0.1,0.3-0.3,0.5-0.3c1.3,0,2.6,0,3.9,0
		c0.3,0,0.5,0.1,0.5,0.4c0.3,1.8,0.6,3.7,0.8,5.5c0.5,3,0.9,6,1.4,9c0.1,0.7,0.2,1.4,0.3,2c0.1,0.3,0,0.4-0.3,0.4
		C85.5,47.5,84.7,47.5,84,47.5z M78.8,40.8c0.5,0,0.9,0,1.4,0c0.6,0,0.6,0,0.5-0.6c-0.2-1.3-0.3-2.6-0.5-4c0-0.1-0.1-0.2-0.1-0.3
		C80,36,79.9,36,79.9,36.1C79,37.5,78,39,77.1,40.4c-0.2,0.3-0.1,0.4,0.2,0.4C77.8,40.8,78.3,40.8,78.8,40.8z"/>
	<path class="st0" d="M57.2,30.3c0.6,0,1.3,0,1.9,0c0.5,0,0.7,0.2,0.8,0.6c0.4,1.8,0.9,3.5,1.4,5.3c0,0.1,0.1,0.2,0.1,0.4
		c0.1-0.1,0.2-0.2,0.3-0.3c1.5-1.9,3.1-3.8,4.6-5.7c0.1-0.2,0.4-0.3,0.6-0.3c1.6,0,3.3,0,4.9,0c0.1,0,0.2,0,0.3,0
		c-0.1,0.1-0.1,0.2-0.2,0.3c-2.9,3.4-5.8,6.7-8.8,10.1c-0.4,0.5-0.7,0.9-0.8,1.5c-0.4,1.6-0.9,3.2-1.3,4.9c-0.1,0.3-0.2,0.4-0.6,0.4
		c-1.3,0-2.6,0-3.9,0c-0.4,0-0.5-0.1-0.4-0.5c0.5-1.9,1-3.8,1.5-5.6c0.1-0.4,0.1-0.7,0-1.1c-1-3.1-2-6.2-3.1-9.3
		c0-0.1,0-0.2-0.1-0.3c-0.2-0.4,0-0.4,0.3-0.4C55.8,30.3,56.5,30.3,57.2,30.3z"/>
	<path class="st0" d="M65.5,13.2c0.8,0,1.6,0,2.4,0c0.3,0,0.4,0.1,0.3,0.4c-0.6,2.4-1.3,4.8-1.9,7.1c0,0.1-0.2,0.3-0.3,0.3
		c-2.3,0.7-4.7,1.1-7.1,0.6c-2.6-0.5-4.1-2.4-4.1-5.1c0-5.2,3.8-9.8,9-10.6c1.8-0.3,3.5-0.3,5.2,0.3c0.8,0.3,0.8,0.3,0.4,1
		C69,7.6,68.8,8,68.6,8.4c-0.1,0.1-0.3,0.2-0.4,0.1c-3.6-1.7-9.3-0.2-10.7,5.7c-0.2,0.9-0.3,1.8-0.1,2.7c0.2,1.6,1.3,2.5,3,2.9
		c1.1,0.2,2.2,0.1,3.3-0.1c0.3-0.1,0.5-0.2,0.5-0.5c0.3-1.1,0.6-2.2,0.9-3.3c0.1-0.4,0-0.5-0.4-0.5c-0.7,0-1.5,0-2.2,0
		c-0.3,0-0.4-0.1-0.3-0.4c0.1-0.4,0.3-0.9,0.3-1.3c0.1-0.3,0.2-0.4,0.5-0.4C63.9,13.2,64.7,13.2,65.5,13.2z"/>
	<path class="st0" d="M107.8,11.5c0.2-0.1,0.3-0.2,0.5-0.3c1.2-0.9,2.6-1.3,4.1-1.2c1.6,0.2,2.8,1.3,3,2.9c0.3,2.6-0.5,4.9-2.3,6.8
		c-1.3,1.5-3.1,2.3-5.1,2.2c-0.8-0.1-1.6-0.3-2.2-1c-0.2-0.3-0.3-0.2-0.4,0.1c-0.4,1.5-0.8,3.1-1.2,4.6c-0.1,0.4-0.3,0.6-0.7,0.6
		c-0.4,0-0.9,0-1.3,0c-0.4,0-0.5-0.1-0.4-0.5c1.1-3.9,2.1-7.9,3.2-11.8c0.3-1.1,0.5-2.2,0.8-3.2c0.1-0.3,0.2-0.4,0.5-0.4
		c0.5,0,1,0,1.5,0c0.2,0,0.3,0.1,0.3,0.3C107.9,10.9,107.9,11.2,107.8,11.5L107.8,11.5L107.8,11.5z M108.6,20c0.5-0.1,1-0.2,1.4-0.4
		c1.8-0.8,3.3-3.7,2.9-5.7c-0.3-1.5-1.4-2.2-2.8-1.8c-1.2,0.3-2.2,1.1-2.7,2.2c-0.4,0.9-0.7,2-0.9,3C106.1,18.9,107,19.9,108.6,20z"
		/>
	<path class="st0" d="M111.7,47.5c-0.6,0-1.2,0-1.8,0c-0.4,0-0.5-0.1-0.4-0.5c0.9-3.3,1.8-6.7,2.7-10c0.6-2.1,1.1-4.2,1.7-6.3
		c0.1-0.3,0.2-0.5,0.6-0.5c1.3,0,2.5,0,3.8,0c0.4,0,0.5,0.1,0.4,0.5c-1.5,5.4-2.9,10.9-4.4,16.3c-0.1,0.3-0.2,0.4-0.6,0.4
		C113,47.5,112.3,47.5,111.7,47.5z"/>
	<path class="st0" d="M89,14.2c-0.1,3.7-2.5,6.8-6,7.6c-0.8,0.2-1.8,0.2-2.6,0.1c-1.8-0.3-3-1.7-3.1-3.6c-0.2-3.2,2-7.3,6.2-8.1
		c0.9-0.2,1.8-0.2,2.7,0.1C87.9,10.6,89,12.2,89,14.2z M86.4,15.2c0.1-3-1.5-3.7-3.4-3c-2.1,0.8-3.7,4.1-3.1,6.3
		c0.3,1,1.1,1.6,2.1,1.5c0.5,0,1.1-0.2,1.6-0.5C85.4,18.4,86.2,16.6,86.4,15.2z"/>
	<path class="st0" d="M123.1,16.6c-1.1,0-2.3,0-3.4,0c-0.3,0-0.4,0.1-0.5,0.4c-0.3,1.7,0.7,2.9,2.3,2.9c1.1,0,2.3-0.1,3.3-0.5
		c0.3-0.1,0.4,0,0.4,0.3c0,0.3,0,0.6,0,0.9c0.1,0.5-0.1,0.7-0.6,0.8c-1.5,0.4-3,0.7-4.6,0.4c-2.1-0.3-3.4-1.8-3.3-4
		c0.2-2.6,1.2-4.9,3.3-6.5c1.3-1,2.8-1.5,4.5-1.3c1.8,0.2,2.8,1.3,3,3.1c0.1,1-0.1,2-0.4,3c-0.1,0.3-0.3,0.4-0.6,0.4c0,0,0,0-0.1,0
		C125.3,16.6,124.2,16.6,123.1,16.6z M122.5,14.7c0.8,0,1.5,0,2.3,0c0.1,0,0.3-0.1,0.4-0.2c0.5-1.3-0.3-2.6-1.7-2.6
		c-1.3,0-3.1,1.2-3.5,2.6c-0.1,0.3,0.1,0.3,0.3,0.3C121,14.7,121.7,14.7,122.5,14.7z"/>
	<path class="st0" d="M94,10.2c0.4,0,0.8,0,1.2,0.1c-0.1,0.4-0.2,0.8-0.2,1.1c-0.5,1.9-1,3.8-1.5,5.7c-0.1,0.5-0.1,1.1-0.1,1.6
		c0.1,0.6,0.5,1,1.1,1.1c1.6,0.2,3.3-1,3.7-2.7c0.6-2,1.1-4.1,1.6-6.1c0.2-0.8,0-0.7,0.9-0.7c0.4,0,0.8,0,1.2,0c0.5,0,0.6,0,0.4,0.5
		c-0.6,2.3-1.2,4.6-1.8,6.9c-0.3,1.2-0.6,2.4-0.9,3.7c-0.1,0.2-0.1,0.4-0.4,0.3c-0.5,0-1,0-1.5,0c-0.3,0-0.4-0.1-0.3-0.4
		c0.1-0.3,0.1-0.5,0.1-0.8c-0.2,0.1-0.5,0.3-0.7,0.4c-1.1,0.7-2.3,1-3.6,0.9c-1.5-0.1-2.5-1.2-2.5-2.7c0-0.8,0.1-1.7,0.3-2.5
		c0.5-2,1.1-3.9,1.5-5.9c0.1-0.5,0.3-0.7,0.8-0.6C93.6,10.3,93.8,10.3,94,10.2C94,10.3,94,10.3,94,10.2z"/>
	<path class="st0" d="M76.8,12.4c-1.3,0-2.1,0.5-2.8,1.4c-0.6,0.8-0.9,1.6-1.1,2.6c-0.4,1.7-0.9,3.3-1.3,5c-0.1,0.3-0.2,0.4-0.5,0.4
		c-0.5,0-1,0-1.4,0c-0.6,0-0.6,0-0.4-0.5c0.5-1.7,0.9-3.5,1.4-5.2c0.5-1.8,0.9-3.6,1.4-5.4c0.1-0.2,0.2-0.3,0.4-0.3c0.5,0,1,0,1.5,0
		c0.3,0,0.3,0.1,0.3,0.3c-0.1,0.3-0.1,0.6-0.2,0.9c0.2-0.2,0.5-0.4,0.7-0.6c0.8-0.6,1.7-1,2.8-0.9c0.4,0,0.5,0.2,0.4,0.6
		c-0.1,0.4-0.2,0.7-0.3,1.1C77.4,12.4,77.4,12.4,76.8,12.4z"/>
	<polygon class="st0" points="107.8,11.5 107.8,11.5 107.8,11.5 	"/>
	<polygon class="st0" points="39.4,50.7 39.4,50.7 39.4,50.7 	"/>
	<path class="st0" d="M70.2,51.5h2l-0.3,1h-2L70.2,51.5z"/>
	<path class="st0" d="M112.6,51.5h2l-0.3,1h-2L112.6,51.5z"/>
	<path class="st0" d="M38.2,50.1h1l-0.2,0.8c0.4-0.6,0.8-0.8,1.2-0.8c0.2,0,0.3,0,0.5,0.1L40.2,51c-0.1,0-0.2-0.1-0.3-0.1
		c-0.2,0-0.4,0.1-0.6,0.2c-0.2,0.1-0.4,0.3-0.5,0.5c-0.1,0.2-0.2,0.6-0.4,1.1L38.1,54h-1.1L38.2,50.1z"/>
	<path class="st0" d="M41.7,51.2l-1-0.1c0.1-0.3,0.4-0.6,0.7-0.8s0.7-0.3,1.2-0.3c0.5,0,0.9,0.1,1.1,0.3c0.2,0.2,0.3,0.4,0.3,0.7
		c0,0.1,0,0.2-0.1,0.4c0,0.1-0.1,0.5-0.3,1c-0.1,0.5-0.2,0.8-0.2,1c0,0.2,0,0.3,0,0.6h-1c0-0.1,0-0.3,0-0.4
		c-0.2,0.2-0.4,0.3-0.6,0.4c-0.2,0.1-0.4,0.1-0.6,0.1c-0.3,0-0.6-0.1-0.8-0.3c-0.2-0.2-0.3-0.5-0.3-0.8c0-0.4,0.2-0.7,0.4-0.9
		c0.2-0.2,0.7-0.4,1.3-0.4c0.5,0,0.8-0.1,1-0.1c0.1-0.1,0.1-0.3,0.1-0.4c0-0.1,0-0.2-0.1-0.3c-0.1-0.1-0.2-0.1-0.4-0.1
		c-0.2,0-0.3,0-0.5,0.1C41.9,50.9,41.8,51.1,41.7,51.2z M42.7,52.2c-0.1,0-0.1,0-0.3,0c-0.5,0.1-0.9,0.2-1.1,0.3
		c-0.1,0.1-0.2,0.2-0.2,0.4c0,0.1,0,0.2,0.1,0.3c0.1,0.1,0.2,0.1,0.3,0.1c0.2,0,0.3,0,0.5-0.1c0.1-0.1,0.3-0.2,0.3-0.3
		s0.2-0.3,0.2-0.6L42.7,52.2z"/>
	<path class="st0" d="M45.4,50.1h1l-0.1,0.5c0.3-0.2,0.5-0.4,0.7-0.5c0.2-0.1,0.5-0.1,0.7-0.1c0.3,0,0.6,0.1,0.7,0.3
		c0.2,0.2,0.2,0.4,0.2,0.7c0,0.1-0.1,0.4-0.2,0.8L47.8,54h-1.1l0.6-2.2c0.1-0.3,0.1-0.5,0.1-0.6c0-0.1,0-0.2-0.1-0.3
		c-0.1-0.1-0.2-0.1-0.3-0.1c-0.2,0-0.3,0.1-0.5,0.2c-0.2,0.1-0.4,0.3-0.5,0.5c-0.1,0.2-0.2,0.5-0.3,0.9L45.3,54h-1.1L45.4,50.1z"/>
	<path class="st0" d="M48.8,52.9l1-0.2c0.1,0.2,0.2,0.4,0.3,0.5c0.1,0.1,0.3,0.1,0.5,0.1c0.2,0,0.4-0.1,0.6-0.2
		c0.1-0.1,0.2-0.2,0.2-0.3c0-0.1,0-0.1-0.1-0.2c-0.1-0.1-0.2-0.1-0.4-0.2c-0.6-0.2-1-0.4-1.1-0.5c-0.2-0.2-0.3-0.4-0.3-0.7
		s0.2-0.6,0.4-0.8c0.3-0.3,0.8-0.5,1.5-0.5c0.5,0,0.9,0.1,1.1,0.3c0.2,0.2,0.4,0.4,0.4,0.7l-1,0.2c0-0.1-0.1-0.2-0.2-0.3
		c-0.2-0.1-0.3-0.1-0.6-0.1c-0.2,0-0.4,0-0.5,0.1c-0.1,0.1-0.2,0.2-0.2,0.3c0,0.1,0,0.2,0.1,0.2c0.1,0,0.2,0.1,0.6,0.2
		c0.5,0.1,0.8,0.3,1,0.4c0.2,0.2,0.3,0.4,0.3,0.7c0,0.4-0.2,0.7-0.5,1c-0.3,0.3-0.8,0.4-1.3,0.4c-0.6,0-1-0.1-1.3-0.3
		C49.1,53.6,48.9,53.3,48.8,52.9z"/>
	<path class="st0" d="M54.1,50.1h1L55,50.5c0.2-0.2,0.4-0.3,0.6-0.4C55.8,50,56,50,56.2,50c0.4,0,0.7,0.1,1,0.4
		c0.2,0.3,0.3,0.7,0.3,1.3c0,0.7-0.3,1.3-0.8,1.8c-0.4,0.4-0.8,0.6-1.3,0.6c-0.5,0-0.9-0.2-1.1-0.6l-0.6,2h-1.1L54.1,50.1z
		 M54.6,52.3c0,0.3,0,0.5,0.2,0.7c0.1,0.2,0.3,0.3,0.5,0.3c0.2,0,0.3-0.1,0.5-0.2c0.2-0.1,0.3-0.3,0.4-0.6c0.1-0.3,0.2-0.6,0.2-0.8
		c0-0.3,0-0.5-0.2-0.7c-0.1-0.2-0.3-0.2-0.5-0.2c-0.2,0-0.4,0.1-0.6,0.2c-0.2,0.1-0.3,0.4-0.4,0.6C54.7,51.9,54.6,52.1,54.6,52.3z"
		/>
	<path class="st0" d="M57.9,52.4c0-0.7,0.3-1.3,0.7-1.7c0.4-0.4,1-0.6,1.6-0.6c0.6,0,1,0.2,1.3,0.5c0.3,0.3,0.4,0.7,0.4,1.3
		c0,0.6-0.3,1.2-0.7,1.6c-0.4,0.5-1,0.7-1.7,0.7c-0.4,0-0.7-0.1-1-0.2c-0.3-0.1-0.5-0.4-0.6-0.6C58,53,57.9,52.7,57.9,52.4z
		 M61,51.6c0-0.2,0-0.4-0.2-0.6c-0.1-0.2-0.3-0.2-0.5-0.2c-0.2,0-0.4,0.1-0.6,0.2c-0.2,0.1-0.3,0.3-0.5,0.6
		c-0.1,0.3-0.2,0.5-0.2,0.7c0,0.3,0,0.5,0.2,0.7c0.1,0.2,0.3,0.2,0.6,0.2c0.3,0,0.5-0.1,0.8-0.4C60.8,52.5,60.9,52.1,61,51.6z"/>
	<path class="st0" d="M63.3,50.1h1l-0.2,0.8c0.4-0.6,0.8-0.8,1.2-0.8c0.2,0,0.3,0,0.5,0.1L65.3,51c-0.1,0-0.2-0.1-0.3-0.1
		c-0.2,0-0.4,0.1-0.6,0.2c-0.2,0.1-0.4,0.3-0.5,0.5c-0.1,0.2-0.2,0.6-0.4,1.1L63.3,54h-1.1L63.3,50.1z"/>
	<path class="st0" d="M74.5,54l1.5-5.4h1L75.5,54H74.5z"/>
	<path class="st0" d="M76.8,52.4c0-0.7,0.3-1.3,0.7-1.7c0.4-0.4,1-0.6,1.6-0.6c0.6,0,1,0.2,1.3,0.5c0.3,0.3,0.4,0.7,0.4,1.3
		c0,0.6-0.3,1.2-0.7,1.6c-0.4,0.5-1,0.7-1.7,0.7c-0.4,0-0.7-0.1-1-0.2s-0.5-0.4-0.6-0.6C76.9,53,76.8,52.7,76.8,52.4z M79.9,51.6
		c0-0.2,0-0.4-0.2-0.6c-0.1-0.2-0.3-0.2-0.5-0.2c-0.2,0-0.4,0.1-0.6,0.2c-0.2,0.1-0.3,0.3-0.5,0.6c-0.1,0.3-0.2,0.5-0.2,0.7
		c0,0.3,0,0.5,0.2,0.7c0.1,0.2,0.3,0.2,0.6,0.2c0.3,0,0.5-0.1,0.8-0.4C79.7,52.5,79.9,52.1,79.9,51.6z"/>
	<path class="st0" d="M81.1,54.2l1.1,0.2c0,0.1,0,0.2,0,0.3c0,0.1,0.1,0.1,0.2,0.1c0.1,0,0.2,0.1,0.3,0.1c0.2,0,0.4,0,0.5-0.1
		c0.1-0.1,0.2-0.2,0.3-0.3c0-0.1,0.1-0.3,0.2-0.6l0-0.2C83.4,53.8,83,54,82.6,54c-0.4,0-0.7-0.1-0.9-0.4c-0.2-0.3-0.3-0.7-0.3-1.2
		c0-0.5,0.1-0.9,0.3-1.3c0.2-0.4,0.4-0.7,0.8-0.9c0.3-0.2,0.6-0.3,0.9-0.3c0.3,0,0.5,0.1,0.7,0.2c0.2,0.1,0.4,0.3,0.5,0.6l0.2-0.7h1
		l-0.9,3.2c-0.1,0.5-0.3,0.9-0.4,1.1c-0.1,0.2-0.2,0.4-0.3,0.5s-0.2,0.2-0.4,0.3c-0.2,0.1-0.3,0.2-0.5,0.2c-0.2,0-0.4,0.1-0.7,0.1
		c-0.5,0-1-0.1-1.2-0.3c-0.3-0.2-0.4-0.5-0.4-0.9C81.1,54.3,81.1,54.2,81.1,54.2z M82.5,52.3c0,0.3,0,0.5,0.2,0.7
		c0.1,0.2,0.3,0.2,0.5,0.2c0.2,0,0.4-0.1,0.5-0.2c0.2-0.1,0.3-0.3,0.4-0.6c0.1-0.3,0.2-0.5,0.2-0.7c0-0.3,0-0.5-0.2-0.7
		c-0.1-0.2-0.3-0.3-0.5-0.3c-0.2,0-0.4,0.1-0.5,0.2c-0.2,0.1-0.3,0.4-0.4,0.7C82.5,51.9,82.5,52.1,82.5,52.3z"/>
	<path class="st0" d="M140.7,54.2l1.1,0.2c0,0.1,0,0.2,0,0.3c0,0.1,0.1,0.1,0.2,0.1c0.1,0,0.2,0.1,0.3,0.1c0.2,0,0.4,0,0.5-0.1
		c0.1-0.1,0.2-0.2,0.3-0.3c0-0.1,0.1-0.3,0.2-0.6l0-0.2c-0.4,0.3-0.8,0.5-1.2,0.5c-0.4,0-0.7-0.1-0.9-0.4c-0.2-0.3-0.3-0.7-0.3-1.2
		c0-0.5,0.1-0.9,0.3-1.3c0.2-0.4,0.4-0.7,0.8-0.9c0.3-0.2,0.6-0.3,0.9-0.3c0.3,0,0.5,0.1,0.7,0.2c0.2,0.1,0.4,0.3,0.5,0.6l0.2-0.7h1
		l-0.9,3.2c-0.1,0.5-0.3,0.9-0.4,1.1c-0.1,0.2-0.2,0.4-0.3,0.5c-0.1,0.1-0.2,0.2-0.4,0.3c-0.2,0.1-0.3,0.2-0.5,0.2
		c-0.2,0-0.4,0.1-0.7,0.1c-0.5,0-1-0.1-1.2-0.3c-0.3-0.2-0.4-0.5-0.4-0.9C140.7,54.3,140.7,54.2,140.7,54.2z M142,52.3
		c0,0.3,0,0.5,0.2,0.7c0.1,0.2,0.3,0.2,0.5,0.2c0.2,0,0.4-0.1,0.5-0.2c0.2-0.1,0.3-0.3,0.4-0.6c0.1-0.3,0.2-0.5,0.2-0.7
		c0-0.3,0-0.5-0.2-0.7c-0.1-0.2-0.3-0.3-0.5-0.3c-0.2,0-0.4,0.1-0.5,0.2c-0.2,0.1-0.3,0.4-0.4,0.7C142.1,51.9,142.1,52.1,142,52.3z"
		/>
	<path class="st0" d="M86.9,50.1h1.1L86.8,54h-1.1L86.9,50.1z M87.3,48.6h1.1l-0.3,1H87L87.3,48.6z"/>
	<path class="st0" d="M87.8,52.9l1-0.2c0.1,0.2,0.2,0.4,0.3,0.5c0.1,0.1,0.3,0.1,0.5,0.1c0.2,0,0.4-0.1,0.6-0.2
		c0.1-0.1,0.2-0.2,0.2-0.3c0-0.1,0-0.1-0.1-0.2c0-0.1-0.2-0.1-0.4-0.2c-0.6-0.2-1-0.4-1.1-0.5c-0.2-0.2-0.3-0.4-0.3-0.7
		c0-0.3,0.2-0.6,0.4-0.8c0.3-0.3,0.8-0.5,1.5-0.5c0.5,0,0.9,0.1,1.1,0.3c0.2,0.2,0.4,0.4,0.4,0.7l-1,0.2c0-0.1-0.1-0.2-0.2-0.3
		c-0.1-0.1-0.3-0.1-0.6-0.1s-0.4,0-0.5,0.1c-0.1,0.1-0.2,0.2-0.2,0.3c0,0.1,0,0.2,0.1,0.2c0.1,0,0.2,0.1,0.6,0.2
		c0.5,0.1,0.8,0.3,1,0.4c0.2,0.2,0.3,0.4,0.3,0.7c0,0.4-0.2,0.7-0.5,1c-0.3,0.3-0.8,0.4-1.3,0.4c-0.6,0-1-0.1-1.3-0.3
		C88.1,53.6,87.9,53.3,87.8,52.9z"/>
	<path class="st0" d="M95.7,50.1h1.1L95.7,54h-1.1L95.7,50.1z M96.1,48.6h1.1l-0.3,1h-1.1L96.1,48.6z"/>
	<path class="st0" d="M100.4,50.1h1l-1.5,5.4h-1.1l0.5-1.8c-0.2,0.2-0.4,0.3-0.5,0.3c-0.2,0.1-0.4,0.1-0.6,0.1c-0.4,0-0.7-0.1-1-0.4
		C97,53.4,96.9,53,97,52.5c0-0.4,0.1-0.8,0.3-1.2c0.2-0.4,0.5-0.7,0.8-0.9c0.3-0.2,0.6-0.3,1-0.3c0.6,0,1,0.2,1.2,0.7L100.4,50.1z
		 M98,52.4c0,0.3,0,0.5,0.2,0.6c0.1,0.2,0.3,0.2,0.5,0.2c0.2,0,0.4-0.1,0.5-0.2c0.2-0.1,0.3-0.3,0.4-0.6c0.1-0.3,0.2-0.5,0.2-0.8
		c0-0.3,0-0.5-0.2-0.7c-0.1-0.2-0.3-0.2-0.5-0.2c-0.2,0-0.3,0.1-0.5,0.2c-0.2,0.1-0.3,0.3-0.5,0.6C98.1,51.9,98,52.2,98,52.4z"/>
	<path class="st0" d="M102.4,50.1h1.1l-0.6,2.3c-0.1,0.3-0.1,0.4-0.1,0.5c0,0.1,0,0.2,0.1,0.3c0.1,0.1,0.2,0.1,0.3,0.1
		c0.1,0,0.2,0,0.3-0.1c0.1,0,0.2-0.1,0.3-0.2c0.1-0.1,0.2-0.2,0.3-0.2c0.1-0.1,0.2-0.2,0.2-0.4c0.1-0.1,0.1-0.3,0.2-0.5l0.5-1.8h1.1
		l-1.1,3.9h-1l0.1-0.5c-0.5,0.4-0.9,0.6-1.4,0.6c-0.3,0-0.6-0.1-0.7-0.3c-0.2-0.2-0.2-0.4-0.2-0.7c0-0.1,0.1-0.4,0.2-0.8L102.4,50.1
		z"/>
	<path class="st0" d="M109.8,52.4h-2.6c0,0,0,0.1,0,0.1c0,0.3,0,0.5,0.2,0.6c0.1,0.2,0.3,0.2,0.5,0.2c0.3,0,0.6-0.2,0.9-0.5l0.9,0.2
		c-0.2,0.4-0.5,0.7-0.8,0.8c-0.3,0.2-0.7,0.3-1.1,0.3c-0.5,0-0.9-0.2-1.2-0.5c-0.3-0.3-0.4-0.8-0.4-1.3c0-0.5,0.2-1,0.5-1.4
		c0.4-0.6,1-0.8,1.8-0.8c0.5,0,0.8,0.1,1.1,0.4c0.3,0.3,0.4,0.7,0.3,1.2C109.9,51.9,109.9,52.2,109.8,52.4z M109,51.7
		c0,0,0-0.1,0-0.1c0-0.3,0-0.5-0.1-0.6c-0.1-0.1-0.3-0.2-0.5-0.2s-0.4,0.1-0.6,0.2c-0.2,0.2-0.3,0.4-0.4,0.7H109z"/>
	<path class="st0" d="M116.8,52.9l1-0.2c0.1,0.2,0.2,0.4,0.3,0.5c0.1,0.1,0.3,0.1,0.5,0.1c0.2,0,0.4-0.1,0.6-0.2
		c0.1-0.1,0.2-0.2,0.2-0.3c0-0.1,0-0.1-0.1-0.2c0-0.1-0.2-0.1-0.4-0.2c-0.6-0.2-1-0.4-1.1-0.5c-0.2-0.2-0.3-0.4-0.3-0.7
		c0-0.3,0.2-0.6,0.4-0.8c0.3-0.3,0.8-0.5,1.5-0.5c0.5,0,0.9,0.1,1.1,0.3c0.2,0.2,0.4,0.4,0.4,0.7l-1,0.2c0-0.1-0.1-0.2-0.2-0.3
		c-0.1-0.1-0.3-0.1-0.6-0.1c-0.2,0-0.4,0-0.5,0.1c-0.1,0.1-0.2,0.2-0.2,0.3c0,0.1,0,0.2,0.1,0.2c0.1,0,0.2,0.1,0.6,0.2
		c0.5,0.1,0.8,0.3,1,0.4c0.2,0.2,0.3,0.4,0.3,0.7c0,0.4-0.2,0.7-0.5,1c-0.3,0.3-0.8,0.4-1.3,0.4c-0.6,0-1-0.1-1.3-0.3
		C117.1,53.6,116.9,53.3,116.8,52.9z"/>
	<path class="st0" d="M123.8,52.4c0-0.7,0.3-1.3,0.7-1.7c0.4-0.4,1-0.6,1.6-0.6c0.6,0,1,0.2,1.3,0.5c0.3,0.3,0.4,0.7,0.4,1.3
		c0,0.6-0.3,1.2-0.7,1.6c-0.4,0.5-1,0.7-1.7,0.7c-0.4,0-0.7-0.1-1-0.2c-0.3-0.1-0.5-0.4-0.6-0.6C123.8,53,123.8,52.7,123.8,52.4z
		 M126.9,51.6c0-0.2,0-0.4-0.2-0.6c-0.1-0.2-0.3-0.2-0.5-0.2c-0.2,0-0.4,0.1-0.6,0.2c-0.2,0.1-0.3,0.3-0.5,0.6
		c-0.1,0.3-0.2,0.5-0.2,0.7c0,0.3,0,0.5,0.2,0.7c0.1,0.2,0.3,0.2,0.6,0.2c0.3,0,0.5-0.1,0.8-0.4C126.7,52.5,126.8,52.1,126.9,51.6z"
		/>
	<path class="st0" d="M130.9,52.5l1,0.2c-0.2,0.5-0.5,0.8-0.8,1c-0.3,0.2-0.7,0.4-1.2,0.4c-0.5,0-0.9-0.1-1.1-0.4
		c-0.3-0.3-0.4-0.7-0.4-1.2c0-0.4,0.1-0.8,0.3-1.2c0.2-0.4,0.5-0.7,0.9-0.9c0.4-0.2,0.8-0.3,1.2-0.3c0.5,0,0.8,0.1,1.1,0.4
		c0.3,0.2,0.4,0.6,0.4,0.9l-1,0.1c0-0.2-0.1-0.4-0.2-0.5c-0.1-0.1-0.2-0.2-0.4-0.2c-0.2,0-0.4,0.1-0.6,0.2c-0.2,0.2-0.3,0.4-0.5,0.7
		c-0.1,0.3-0.2,0.6-0.2,0.8c0,0.2,0,0.4,0.1,0.5c0.1,0.1,0.2,0.2,0.4,0.2c0.2,0,0.3-0.1,0.5-0.2C130.7,52.9,130.8,52.8,130.9,52.5z"
		/>
	<path class="st0" d="M132.3,54l1.5-5.4h1.1l-0.8,2.8l1.5-1.3h1.4l-1.7,1.4l0.7,2.5h-1.1l-0.4-1.8l-0.8,0.6l-0.3,1.2H132.3z"/>
	<path class="st0" d="M138.2,51.2l-1-0.1c0.1-0.3,0.4-0.6,0.7-0.8c0.3-0.2,0.7-0.3,1.2-0.3c0.5,0,0.9,0.1,1.1,0.3
		c0.2,0.2,0.3,0.4,0.3,0.7c0,0.1,0,0.2-0.1,0.4c0,0.1-0.1,0.5-0.3,1c-0.1,0.5-0.2,0.8-0.2,1c0,0.2,0,0.3,0,0.6h-1c0-0.1,0-0.3,0-0.4
		c-0.2,0.2-0.4,0.3-0.6,0.4c-0.2,0.1-0.4,0.1-0.6,0.1c-0.3,0-0.6-0.1-0.8-0.3c-0.2-0.2-0.3-0.5-0.3-0.8c0-0.4,0.2-0.7,0.4-0.9
		c0.2-0.2,0.7-0.4,1.3-0.4c0.5,0,0.8-0.1,1-0.1c0.1-0.1,0.1-0.3,0.1-0.4c0-0.1,0-0.2-0.1-0.3c-0.1-0.1-0.2-0.1-0.4-0.1
		c-0.2,0-0.3,0-0.5,0.1C138.4,50.9,138.3,51.1,138.2,51.2z M139.2,52.2c-0.1,0-0.1,0-0.3,0c-0.5,0.1-0.9,0.2-1.1,0.3
		c-0.1,0.1-0.2,0.2-0.2,0.4c0,0.1,0,0.2,0.1,0.3c0.1,0.1,0.2,0.1,0.3,0.1c0.2,0,0.3,0,0.5-0.1c0.1-0.1,0.3-0.2,0.3-0.3
		c0.1-0.1,0.2-0.3,0.2-0.6L139.2,52.2z"/>
	<path class="st0" d="M149.2,52.4h-2.6c0,0,0,0.1,0,0.1c0,0.3,0,0.5,0.2,0.6c0.1,0.2,0.3,0.2,0.5,0.2c0.3,0,0.6-0.2,0.9-0.5l0.9,0.2
		c-0.2,0.4-0.5,0.7-0.8,0.8c-0.3,0.2-0.7,0.3-1.1,0.3c-0.5,0-0.9-0.2-1.2-0.5c-0.3-0.3-0.4-0.8-0.4-1.3c0-0.5,0.2-1,0.5-1.4
		c0.4-0.6,1-0.8,1.8-0.8c0.5,0,0.8,0.1,1.1,0.4c0.3,0.3,0.4,0.7,0.3,1.2C149.3,51.9,149.3,52.2,149.2,52.4z M148.4,51.7
		c0,0,0-0.1,0-0.1c0-0.3,0-0.5-0.1-0.6c-0.1-0.1-0.3-0.2-0.5-0.2s-0.4,0.1-0.6,0.2c-0.2,0.2-0.3,0.4-0.4,0.7H148.4z"/>
	<g>
		<path class="st0" d="M123.1,50.9h0.6l0.2-0.8h-0.6l0.3-1h-1l-0.3,1h-0.5l-0.2,0.8h0.5l-0.4,1.6c-0.1,0.4-0.2,0.7-0.2,0.8
			c0,0.3,0.1,0.5,0.2,0.6c0.2,0.1,0.4,0.2,0.8,0.2c0.2,0,0.4,0,0.6-0.1l0.2-0.8c-0.2,0-0.3,0-0.3,0c-0.1,0-0.2,0-0.3-0.1
			c0,0-0.1-0.1-0.1-0.2c0,0,0-0.2,0.1-0.5L123.1,50.9z"/>
	</g>
	<g>
		<path class="st0" d="M94.6,49.1h-1l-0.3,1h-0.5l-0.2,0.8h0.5l-0.4,1.6c-0.1,0.4-0.2,0.7-0.2,0.8c0,0.3,0.1,0.5,0.2,0.6
			c0.2,0.1,0.4,0.2,0.8,0.2c0.2,0,0.4,0,0.6-0.1l0.2-0.8c-0.2,0-0.3,0-0.3,0c-0.1,0-0.2,0-0.3-0.1c0,0-0.1-0.1-0.1-0.2
			c0,0,0-0.2,0.1-0.5l0.5-1.6h0.6l0.2-0.8h-0.6L94.6,49.1z"/>
	</g>
	<g>
		<path class="st0" d="M67.7,49.1h-1l-0.3,1h-0.5l-0.2,0.8h0.5l-0.4,1.6c-0.1,0.4-0.2,0.7-0.2,0.8c0,0.3,0.1,0.5,0.2,0.6
			c0.2,0.1,0.4,0.2,0.8,0.2c0.2,0,0.4,0,0.6-0.1l0.2-0.8c-0.2,0-0.3,0-0.3,0c-0.1,0-0.2,0-0.3-0.1c0,0-0.1-0.1-0.1-0.2
			c0,0,0-0.2,0.1-0.5l0.5-1.6h0.6l0.2-0.8h-0.6L67.7,49.1z"/>
	</g>
	<g>
		<path class="st0" d="M36.6,50.9h0.6l0.2-0.8h-0.6l0.3-1h-1l-0.3,1h-0.5l-0.2,0.8h0.5l-0.4,1.6C35,52.9,35,53.1,35,53.3
			c0,0.3,0.1,0.5,0.2,0.6c0.2,0.1,0.4,0.2,0.8,0.2c0.2,0,0.4,0,0.6-0.1l0.2-0.8c-0.2,0-0.3,0-0.3,0c-0.1,0-0.2,0-0.3-0.1
			c0,0-0.1-0.1-0.1-0.2c0,0,0-0.2,0.1-0.5L36.6,50.9z"/>
	</g>
</g>
</svg>
