<?xml version="1.0" encoding="utf-8"?>
<!-- Generator: Adobe Illustrator 27.1.0, SVG Export Plug-In . SVG Version: 6.00 Build 0)  -->
<svg version="1.1" xmlns="http://www.w3.org/2000/svg" xmlns:xlink="http://www.w3.org/1999/xlink" x="0px" y="0px"
	 viewBox="0 0 153 84.8947" enable-background="new 0 0 153 84.8947" xml:space="preserve">
<g id="Calque_1">
	<path fill="#E3000F" d="M67.4406,30.5014l-5.4397,16.7191c-0.0194,0.0231-0.0194,0.0569,0,0.08l0.08,0.0711l0.0889,0.0622
		c0.0241,0.0164,0.0559,0.0164,0.08,0l14.2215-10.3372l14.2215,10.3372c0.0241,0.0164,0.0559,0.0164,0.08,0l0.0889-0.0622
		l0.08-0.0711c0.0164-0.0241,0.0164-0.0559,0-0.08l-5.4397-16.7102l14.2215-10.3195c0.0194-0.0231,0.0194-0.0569,0-0.08
		c0.0021-0.0355,0.0021-0.0711,0-0.1067c0.002-0.0326,0.002-0.0652,0-0.0978c-0.0115-0.0287-0.0403-0.0467-0.0711-0.0444H82.0887
		l-5.413-16.7548c-0.0115-0.0287-0.0403-0.0467-0.0711-0.0444h-0.2133c-0.0308-0.0022-0.0596,0.0157-0.0711,0.0444l-5.422,16.7191
		H53.3346c-0.0308-0.0022-0.0596,0.0157-0.0711,0.0444c-0.002,0.0326-0.002,0.0652,0,0.0978v0.1067
		c-0.0194,0.0231-0.0194,0.0569,0,0.08L67.4406,30.5014z"/>
	<path fill="#FFFFFF" d="M91.0393,49.4249c-0.265-0.0012-0.5241-0.0783-0.7467-0.2222l0,0c0,0-0.5689-0.3556-1.4399-0.9422
		c-2.551-1.7244-8.8173-5.973-12.346-8.4707c-3.3776,2.3999-9.1729,6.3286-12.346,8.4707
		c-0.8888,0.5955-1.4488,0.9511-1.4577,0.9511c-0.2197,0.1419-0.4762,0.2161-0.7377,0.2133
		c-0.2397,0.0009-0.4755-0.0604-0.6844-0.1778c-0.1778-0.1067-0.32-0.2133-0.3555-0.24c-0.1192-0.0802-0.2321-0.1693-0.3378-0.2666
		c-0.3772-0.3503-0.531-0.8798-0.4-1.3777c0,0,0.16-0.6311,0.4533-1.6621c1.0577-3.6798,3.0043-10.3906,4.2487-14.3637
		c-3.3243-2.4799-8.8884-6.7641-11.8749-9.1195c-0.8444-0.6577-1.351-1.0844-1.351-1.0933c-0.392-0.3266-0.573-0.8422-0.4711-1.3422
		c0.0444-0.1866,0.0978-0.3555,0.1156-0.4089c0.0398-0.14,0.0903-0.2767,0.1511-0.4089c0.2135-0.468,0.6686-0.7794,1.1822-0.8089
		l0,0c0,0,0.6489-0.0444,1.7244-0.0889c3.8309-0.1333,10.8261-0.3555,14.9681-0.4c1.3244-3.9198,3.6976-10.5061,5.0042-14.1148
		c0.3644-1.0133,0.6133-1.6177,0.6222-1.6266c0.1847-0.4809,0.618-0.822,1.1288-0.8888h0.3733h0.1067h0.3822
		c0.5158,0.0599,0.9548,0.4029,1.1377,0.8888l0,0c0.0622,0.1422,0.3022,0.7555,0.6133,1.6088
		c1.3066,3.6087,3.6887,10.2039,5.0042,14.1148c4.1509,0.0444,11.1372,0.2666,14.9681,0.4c1.0755,0,1.7244,0.0889,1.7777,0.0889
		c0.511,0.0307,0.9628,0.3422,1.1733,0.8089c0.0711,0.16,0.1245,0.32,0.1422,0.3911c0.0543,0.1381,0.096,0.281,0.1245,0.4267
		c0.1054,0.5047-0.0798,1.026-0.48,1.351c-0.0889,0.0711-0.5778,0.48-1.3422,1.0755c-3.0221,2.3554-8.5507,6.6486-11.8749,9.1284
		c1.2355,3.9642,3.1821,10.6661,4.2398,14.3637c0.3022,1.0488,0.4533,1.6799,0.4533,1.6799c0.1258,0.4941-0.0315,1.0172-0.4089,1.36
		c-0.1422,0.1245-0.2755,0.2222-0.3289,0.2577c-0.1139,0.0935-0.2358,0.1768-0.3644,0.2489
		C91.5623,49.3677,91.3022,49.4358,91.0393,49.4249z"/>
	<path fill="#E3000F" d="M67.4406,30.5014l-5.4397,16.7191c-0.0194,0.0231-0.0194,0.0569,0,0.08l0.08,0.0711l0.0889,0.0622
		c0.0241,0.0164,0.0559,0.0164,0.08,0l14.2215-10.3372l14.2215,10.3372c0.0241,0.0164,0.0559,0.0164,0.08,0l0.0889-0.0622
		l0.08-0.0711c0.0164-0.0241,0.0164-0.0559,0-0.08l-5.4397-16.7102l14.2215-10.3195c0.0194-0.0231,0.0194-0.0569,0-0.08
		c0.0021-0.0355,0.0021-0.0711,0-0.1067c0.002-0.0326,0.002-0.0652,0-0.0978c-0.0115-0.0287-0.0403-0.0467-0.0711-0.0444H82.0887
		l-5.413-16.7548c-0.0115-0.0287-0.0403-0.0467-0.0711-0.0444h-0.2133c-0.0308-0.0022-0.0596,0.0157-0.0711,0.0444l-5.422,16.7191
		H53.3346c-0.0308-0.0022-0.0596,0.0157-0.0711,0.0444c-0.002,0.0326-0.002,0.0652,0,0.0978v0.1067
		c-0.0194,0.0231-0.0194,0.0569,0,0.08L67.4406,30.5014z"/>
	<path fill="#FFFFFF" d="M109.3317,43.8163v-0.16h-1.0399c-0.1002,0.7592,0.434,1.4559,1.1932,1.5561
		c0.0935,0.0123,0.1881,0.0151,0.2822,0.0082c0.8413,0.0718,1.5815-0.5521,1.6532-1.3933c0.0074-0.0865,0.0074-0.1734,0-0.2599
		c0.0704-0.6001-0.3068-1.1621-0.8888-1.3244l0,0c0.4828-0.2502,0.7566-0.7765,0.6844-1.3155
		c0.076-0.7275-0.4522-1.3788-1.1797-1.4547c-0.0805-0.0084-0.1617-0.0094-0.2424-0.003c-1.0222,0-1.3422,0.7466-1.3155,1.6532
		h0.9689v-0.1156c0-0.2489,0.0533-0.5777,0.3733-0.5777s0.3822,0.32,0.3822,0.5689c0,0.6222-0.2489,0.7377-0.8888,0.7377v0.9688
		c0.6311,0,0.8444,0.1511,0.8444,0.7822c0,0.3289,0,0.7911-0.48,0.7911c-0.2307-0.0047-0.4139-0.1955-0.4092-0.4261
		c0.0001-0.0031,0.0002-0.0062,0.0003-0.0094"/>
	<polygon fill="#FFFFFF" points="107.163,39.5409 104.1409,39.5409 104.1409,40.5009 105.6431,40.5009 103.9009,45.1318 
		105.0564,45.1318 	"/>
	<path fill="#FFFFFF" d="M101.3855,42.1186L101.3855,42.1186c0.4892-0.1804,0.8006-0.662,0.7644-1.1821
		c0.0616-0.7732-0.5153-1.4499-1.2885-1.5115c-0.7731-0.0616-1.4499,0.5153-1.5114,1.2885c-0.0059,0.0742-0.0059,0.1488,0,0.223
		c-0.0303,0.5186,0.2791,0.9969,0.7644,1.1821l0,0c-0.6325,0.1992-1.0375,0.8159-0.9689,1.4755
		c-0.066,0.8861,0.5987,1.6579,1.4848,1.7239c0.886,0.0661,1.6579-0.5987,1.7239-1.4847c0.0059-0.0796,0.0059-0.1596,0-0.2392
		c0.0759-0.6613-0.3318-1.2823-0.9689-1.4755 M100.7365,40.3409c0.3022,0,0.3378,0.3911,0.3378,0.5955
		c0,0.2044,0,0.6311-0.3378,0.6311c-0.3378,0-0.3111-0.4267-0.3111-0.6311c0-0.2044,0.0444-0.5866,0.3111-0.5866 M100.7365,44.2874
		c-0.3822,0-0.4622-0.5066-0.4622-0.7911s0.08-0.8088,0.4533-0.8088s0.4889,0.5333,0.4889,0.8088s-0.1067,0.7911-0.4889,0.7911"/>
	<polygon fill="#FFFFFF" points="97.2079,39.5409 95.5991,39.5409 95.5991,40.5009 96.1413,40.5009 96.1413,45.1318 
		97.2079,45.1318 	"/>
	<polygon fill="#FFFFFF" points="45.1928,39.5409 42.7485,39.5409 42.7485,45.1318 45.2106,45.1318 45.2106,44.0918 
		43.9573,44.0918 43.9573,42.8297 45.0417,42.8297 45.0417,41.7897 43.9573,41.7897 43.9573,40.572 45.1928,40.572 	"/>
	<path fill="#FFFFFF" d="M56.89,43.8074c-0.3878-0.0049-0.7061,0.3054-0.7111,0.6932c0,0,0,0.0001,0,0.0001
		c0,0.3927,0.3183,0.7111,0.7111,0.7111c0.3903,0,0.7066-0.3164,0.7066-0.7067c0-0.3902-0.3164-0.7066-0.7066-0.7066l0,0"/>
	<polygon fill="#FFFFFF" points="55.3256,39.5409 52.1969,39.5409 52.1969,40.572 53.148,40.572 53.148,45.1318 54.3657,45.1318 
		54.3657,40.572 55.3256,40.572 	"/>
	<path fill="#FFFFFF" d="M50.0903,40.7942v-1.0755c-0.3351-0.1739-0.7069-0.2653-1.0844-0.2666
		c-0.8485-0.0365-1.5658,0.6218-1.6023,1.4703c-0.0025,0.058-0.0017,0.1161,0.0024,0.1741c0.0173,0.7255,0.4594,1.373,1.1288,1.6533
		c0.3378,0.2311,0.72,0.3911,0.72,0.8177c-0.007,0.3485-0.2952,0.6253-0.6436,0.6183c-0.0225-0.0005-0.0451-0.0021-0.0674-0.005
		c-0.3198-0.0096-0.6294-0.1148-0.8888-0.3022v1.0666c0.318,0.1865,0.6801,0.2847,1.0488,0.2844
		c0.9102,0.0716,1.7062-0.6084,1.7777-1.5186c0.0068-0.0862,0.0068-0.1728,0-0.259c0-1.5199-1.8488-1.5732-1.8488-2.4888
		c-0.0069-0.2994,0.2302-0.5476,0.5296-0.5545c0.025-0.0006,0.05,0.0006,0.0748,0.0034c0.3279,0.0151,0.641,0.1403,0.8888,0.3555"/>
	<path fill="#FFFFFF" d="M39.3976,76.979c-1.0145,1.0817-2.2603,1.9203-3.6443,2.4532c-1.2266,0.4-4.7287,0.7022-5.7597-2.1954
		c-0.2222-0.6311,0-0.8177,0.5244-0.9866c0.8888-0.2489,3.0221-0.8888,5.3331-1.7777c1.5688-0.5709,3.083-1.2819,4.5242-2.1244
		c0.9322-0.5387,1.2605-1.7253,0.7377-2.6665c-1.4666-3.2887-4.7731-6.7374-10.275-5.6886c-4.425,0.8975-7.584,4.8182-7.5196,9.3329
		c0,5.5731,3.3598,8.844,7.6352,9.8484c4.0547,0.8674,8.2334-0.7872,10.595-4.1953C42.3396,77.6901,40.1175,76.2235,39.3976,76.979z
		 M29.4958,72.5881c-0.4267-1.1822-0.0889-4.7998,1.911-5.4841s3.3865,0.3644,4.0087,2.4799
		c0.2398,0.6258,0.2141,1.3223-0.0711,1.9288c-0.4585,0.4335-1.0223,0.7399-1.6355,0.8888l-1.5732,0.5244
		C30.5891,73.4681,29.8514,73.5748,29.4958,72.5881z"/>
	<path fill="#FFFFFF" d="M90.666,76.979c-1.0145,1.0817-2.2603,1.9203-3.6442,2.4532c-1.2266,0.4-4.7287,0.7022-5.7597-2.1954
		c-0.2222-0.6311,0-0.8177,0.5244-0.9866c0.8888-0.2489,3.0221-0.8888,5.3331-1.7777c1.5688-0.5709,3.083-1.2819,4.5242-2.1244
		c0.9322-0.5387,1.2605-1.7253,0.7378-2.6665c-1.4666-3.2887-4.7731-6.7374-10.275-5.6886c-4.4356,0.8862-7.6083,4.81-7.5464,9.3329
		c0,5.5731,3.3598,8.844,7.6352,9.8484c4.0544,0.8649,8.2318-0.7892,10.595-4.1953C93.5726,77.6901,91.3594,76.2235,90.666,76.979z
		 M80.7554,72.5881c-0.2655-1.184-0.179-2.4199,0.2489-3.5554c0.2385-0.8587,0.848-1.5661,1.6621-1.9288
		c0.7737-0.3587,1.6723-0.3257,2.4176,0.0889c0.8163,0.5645,1.3856,1.42,1.591,2.391c0.2398,0.6258,0.2141,1.3223-0.0711,1.9288
		c-0.4566,0.4363-1.0211,0.7431-1.6355,0.8888c-0.6755,0.2489-1.2888,0.4355-1.5733,0.5333c-1.6176,0.5067-2.302,0.64-2.6664-0.3466
		H80.7554z"/>
	<path fill="#FFFFFF" d="M129.6951,76.979c-1.0145,1.0817-2.2603,1.9203-3.6442,2.4532c-1.2266,0.4-4.7287,0.7022-5.7597-2.1954
		c-0.2222-0.6311,0-0.8177,0.5244-0.9866c0.8888-0.2489,3.0221-0.8888,5.3331-1.7777c1.5688-0.5709,3.083-1.2819,4.5242-2.1244
		c0.9322-0.5387,1.2605-1.7253,0.7377-2.6665c-1.4666-3.2887-4.7731-6.7374-10.275-5.6886
		c-4.425,0.8974-7.5841,4.8182-7.5197,9.3329c0,5.5731,3.3599,8.844,7.6352,9.8484c4.0546,0.8674,8.2333-0.7872,10.595-4.1953
		C132.6372,77.6901,130.4151,76.2235,129.6951,76.979z M119.7845,72.5881c-0.2655-1.184-0.179-2.4199,0.2489-3.5554
		c0.2454-0.8487,0.854-1.5452,1.6621-1.9021c0.7737-0.3587,1.6723-0.3257,2.4176,0.0889c0.8163,0.5645,1.3856,1.42,1.591,2.391
		c0.2398,0.6258,0.2141,1.3223-0.0711,1.9288c-0.4566,0.4363-1.021,0.7431-1.6355,0.8888
		c-0.6755,0.2489-1.2799,0.4355-1.5733,0.5333C120.8867,73.4414,120.149,73.5748,119.7845,72.5881L119.7845,72.5881z"/>
	<path fill="#FFFFFF" d="M14.4744,78.0456c0.0855,0.7098-0.2251,1.4094-0.8089,1.8221l-1.2177,0.5689
		c-0.1993,0.0891-0.3154,0.2995-0.2844,0.5155c-0.0066,0.0621-0.0066,0.1246,0,0.1867l0.1511,1.4133
		c0.0711,0.3822,0.3289,0.4444,0.8355,0.4444h9.0395c0.5155,0,0.7733-0.0622,0.8355-0.4444l0.1511-1.4133
		c0.0045-0.0622,0.0045-0.1245,0-0.1867c0.0309-0.2161-0.0852-0.4265-0.2844-0.5155l-1.2444-0.56
		c-0.5822-0.414-0.8923-1.1126-0.8089-1.8221V62.3931c-0.0855-0.7098,0.2251-1.4094,0.8089-1.8221l1.2444-0.56
		c0.2015-0.0867,0.3185-0.2989,0.2844-0.5155c0.0066-0.0621,0.0066-0.1246,0-0.1867l-0.1511-1.0666
		c-0.0711-0.3822-0.3289-0.4444-0.8355-0.4444h-8.6218c-0.5155,0-0.7733,0.0622-0.8355,0.4444l-0.1511,1.0666
		c-0.0045,0.0622-0.0045,0.1245,0,0.1867c-0.0309,0.2161,0.0852,0.4265,0.2844,0.5155l1.0133,0.56
		c0.5777,0.3378,0.6222,1.0755,0.6222,1.8221v4.3642c0,0.3044-0.2467,0.5511-0.5511,0.5511H9.0525
		c-0.3043,0-0.5511-0.2467-0.5511-0.5511v-4.3642c0-0.7467,0-1.4933,0.6222-1.8221l1.0133-0.56
		c0.2015-0.0867,0.3185-0.2989,0.2844-0.5155c0.0066-0.0621,0.0066-0.1246,0-0.1867l-0.1511-1.0666
		c-0.0711-0.3822-0.3289-0.4444-0.8355-0.4444h-8.604c-0.5155,0-0.7733,0.0622-0.8355,0.4444l-0.1511,1.0666
		c-0.0045,0.0622-0.0045,0.1245,0,0.1867c-0.0309,0.2161,0.0852,0.4265,0.2844,0.5155l1.2444,0.56
		c0.5807,0.4153,0.8904,1.1129,0.8089,1.8221v15.6525c0.0855,0.7098-0.2251,1.4094-0.8089,1.8221l-1.2444,0.56
		c-0.1993,0.0891-0.3154,0.2995-0.2844,0.5155c-0.0066,0.0621-0.0066,0.1246,0,0.1867l0.1511,1.4133
		c0.0711,0.3822,0.3289,0.4444,0.8355,0.4444h8.9506c0.5155,0,0.7733-0.0622,0.8355-0.4444l0.1511-1.4133
		c0.0045-0.0622,0.0045-0.1245,0-0.1867c0.0309-0.2161-0.0852-0.4265-0.2844-0.5155l-1.2444-0.56
		c-0.5822-0.414-0.8923-1.1126-0.8089-1.8221v-6.3641c0-0.3044,0.2467-0.5511,0.5511-0.5511h4.8975
		c0.3043,0,0.5511,0.2467,0.5511,0.5511v6.3641H14.4744z"/>
	<path fill="#FFFFFF" d="M50.0903,60.4198c0.0638,1.8005-1.344,3.3117-3.1445,3.3756c-1.8004,0.0638-3.3117-1.344-3.3756-3.1444
		c-0.0638-1.8005,1.344-3.3118,3.1444-3.3756c0.0378-0.0014,0.0757-0.0021,0.1135-0.0021
		C48.5971,57.2436,50.0563,58.6511,50.0903,60.4198z"/>
	<path fill="#FFFFFF" d="M43.264,82.9876c-0.4888,0-0.7377-0.0622-0.8088-0.4266l-0.1422-1.4133
		c-0.0049-0.0591-0.0049-0.1186,0-0.1778c-0.0217-0.2026,0.0846-0.3974,0.2666-0.4889l0.9688-0.5422
		c0.5618-0.4085,0.8606-1.0875,0.7822-1.7777v-8.9151c0-0.7467-0.1333-1.6977-0.7822-2.0354l-0.6222-0.3556
		c-0.2015-0.0867-0.3185-0.2989-0.2844-0.5155c-0.0066-0.0621-0.0066-0.1246,0-0.1867l0.1511-1.0666
		c0.0711-0.3822,0.3289-0.4444,0.8355-0.4444h6.1508c0.3043,0,0.5511,0.2467,0.5511,0.5511v12.986
		c-0.0803,0.6905,0.2189,1.3704,0.7822,1.7777l0.9688,0.5422c0.184,0.0895,0.291,0.2857,0.2666,0.4889
		c0.0068,0.0591,0.0068,0.1187,0,0.1778l-0.1422,1.4133c-0.0622,0.3733-0.3111,0.4266-0.8089,0.4266h-8.0796L43.264,82.9876z"/>
	<path fill="#FFFFFF" d="M61.7342,65.6018l0.9599-0.4711c1.2266-0.5778,3.6176-1.5999,5.5908-0.9689
		c1.7155,0.5511,3.1909,1.7777,3.1909,5.0575v9.884c0,0.4266,0,0.5955,0.2133,0.7022c0.2133,0.1067,0.72-0.2844,1.1555-0.5155
		c0.4355-0.2311,0.6844,0,0.9599,0.3378c0.3346,0.2675,0.4539,0.7228,0.2933,1.1199c-0.8344,1.5714-2.5081,2.5124-4.2842,2.4088
		c-1.7777,0-4.1153-1.0399-4.1153-3.7509v-9.5106c0.1052-0.9218-0.5567-1.7544-1.4786-1.8596
		c-0.1319-0.015-0.2651-0.0144-0.3969,0.0019c-1.2355,0.1511-2.1421,1.1911-2.1421,3.0398v7.1107
		c-0.0803,0.6905,0.2189,1.3704,0.7822,1.7777l0.9688,0.5422c0.184,0.0895,0.291,0.2857,0.2666,0.4889
		c0.0068,0.0591,0.0068,0.1187,0,0.1778l-0.1422,1.4133c-0.0622,0.3733-0.3111,0.4266-0.8088,0.4266h-8.0885
		c-0.4888,0-0.7377-0.0622-0.8088-0.4266l-0.1422-1.4133c-0.0049-0.0591-0.0049-0.1186,0-0.1778
		c-0.0217-0.2026,0.0846-0.3974,0.2666-0.4889l0.9688-0.5422c0.5618-0.4085,0.8606-1.0875,0.7822-1.7777v-8.9418
		c0-0.7467-0.1245-1.6977-0.7822-2.0354l-0.6222-0.3556c-0.2015-0.0867-0.3185-0.2989-0.2844-0.5155
		c-0.0066-0.0621-0.0066-0.1246,0-0.1867l0.1511-1.0666c0.0711-0.3822,0.3289-0.4444,0.8355-0.4444h5.7508
		c0.3479-0.0098,0.6585,0.2168,0.7555,0.5511L61.7342,65.6018z"/>
	<path fill="#FFFFFF" d="M140.6546,65.6018l0.96-0.4711c1.2266-0.5778,3.6176-1.5999,5.5908-0.9689
		c1.7155,0.5511,3.191,1.7777,3.191,5.0575v9.884c0,0.4266,0,0.5955,0.2133,0.7022s0.72-0.2844,1.1555-0.5155
		c0.4355-0.2311,0.6844,0,0.96,0.3378c0.3346,0.2674,0.4539,0.7228,0.2933,1.1199c-0.8344,1.5714-2.5081,2.5124-4.2842,2.4088
		c-1.7777,0-4.1154-1.0399-4.1154-3.7509v-9.5106c0.1296-0.9187-0.5102-1.7685-1.4289-1.898
		c-0.1451-0.0205-0.2922-0.0219-0.4377-0.0041c-1.2355,0.1511-2.1421,1.1911-2.1421,3.0398v7.1107
		c-0.0803,0.6904,0.2188,1.3704,0.7822,1.7777l0.9689,0.5422c0.184,0.0895,0.291,0.2857,0.2666,0.4888
		c0.0068,0.0591,0.0068,0.1187,0,0.1778l-0.1422,1.4133c-0.0622,0.3733-0.3111,0.4266-0.8088,0.4266h-8.0885
		c-0.4889,0-0.7378-0.0622-0.8088-0.4266l-0.1422-1.4133c-0.0049-0.0591-0.0049-0.1186,0-0.1778
		c-0.0217-0.2026,0.0846-0.3974,0.2666-0.4888l0.9689-0.5422c0.5618-0.4085,0.8606-1.0875,0.7822-1.7777v-8.8973
		c0-0.7467-0.1245-1.6977-0.7822-2.0354l-0.6222-0.3556c-0.2015-0.0867-0.3186-0.2989-0.2844-0.5155
		c-0.0066-0.0621-0.0066-0.1246,0-0.1867l0.1511-1.0666c0.0711-0.3822,0.3289-0.4444,0.8355-0.4444h5.7508
		c0.3479-0.0097,0.6585,0.2168,0.7555,0.5511L140.6546,65.6018z"/>
	<path fill="#FFFFFF" d="M111.3761,78.4367c0.3544,0.6253,0.8701,1.144,1.4933,1.5021l0.9689,0.5422
		c0.184,0.0895,0.2911,0.2857,0.2666,0.4889c0.005,0.0591,0.005,0.1186,0,0.1778l-0.1422,1.4133
		c-0.0622,0.3733-0.3111,0.4266-0.8088,0.4266h-4.8797c-0.8355,0-0.8888-0.24-1.2799-0.8888l-4.0976-7.4574l-1.5644,1.4577v2.0977
		c-0.0456,0.7094,0.294,1.3885,0.8888,1.7777l0.9689,0.5422c0.184,0.0895,0.2911,0.2857,0.2666,0.4889
		c0.0068,0.0591,0.0068,0.1187,0,0.1778l-0.1422,1.4133c-0.0622,0.3733-0.3111,0.4266-0.8088,0.4266h-8.0796
		c-0.4889,0-0.7378-0.0622-0.8088-0.4266l-0.1422-1.4133c-0.0049-0.0591-0.0049-0.1186,0-0.1778
		c-0.0217-0.2026,0.0846-0.3974,0.2666-0.4889l0.9689-0.5422c0.5618-0.4085,0.8606-1.0875,0.7822-1.7777V62.1975
		c0.0822-0.6908-0.2173-1.3717-0.7822-1.7777l-0.9689-0.5422c-0.184-0.0895-0.2911-0.2857-0.2666-0.4889
		c-0.0068-0.0591-0.0068-0.1187,0-0.1778l0.1422-1.0044c0.0622-0.3733,0.3111-0.4266,0.8088-0.4266h5.8663
		c0.5743,0,1.0399,0.4656,1.0399,1.0399v12.1505l2.6043-2.3555c0.3733-0.32,0.9777-0.8888,1.2177-1.0933
		c0.24-0.2044,0.2844-0.5866-0.0533-0.7289l-0.8888-0.4177c-0.1875-0.076-0.298-0.2712-0.2666-0.4711
		c-0.0045-0.0562-0.0045-0.1127,0-0.1689l0.1333-1.2888c0.0622-0.3556,0.3022-0.4089,0.7644-0.4089h7.0219
		c0.4622,0,0.7022,0.0533,0.7644,0.4089l0.1333,1.2888c0.0045,0.0562,0.0045,0.1127,0,0.1689c0,0.2755-0.3111,0.4177-0.5155,0.5067
		c-0.3301,0.0998-0.6489,0.2338-0.9511,0.4c-0.5554,0.3424-1.0737,0.7415-1.5466,1.1911l-2.6665,2.5954L111.3761,78.4367z"/>
</g>
<g id="Calque_2">
</g>
</svg>
