<?xml version="1.0" encoding="utf-8"?>
<!-- Generator: Adobe Illustrator 27.1.0, SVG Export Plug-In . SVG Version: 6.00 Build 0)  -->
<svg version="1.1" id="Basis" xmlns="http://www.w3.org/2000/svg" xmlns:xlink="http://www.w3.org/1999/xlink" x="0px" y="0px"
	 viewBox="0 0 454.8898 117.2756" enable-background="new 0 0 454.8898 117.2756" xml:space="preserve">
<g>
	<path fill="#007A3E" d="M-0.03,29.5498v87.1401h454.9402V1.2002H-0.03V29.5498z"/>
</g>
<g>
	<path fill="#FFFFFF" d="M341.8799,80.1602c-0.3999-0.17-2.9697-0.5503-4.5098-3.3804L328.0498,59.71l5.6802-5.4898
		c0,0,1.48-1.4004,2.5698-2.1401c1.1001-0.7403,2.48-1.23,3-1.3101c0.4404-0.0801,0.8501-0.5,0.7002-2.73
		c-0.1099-1.9399-0.48-2.08-0.9502-2.1298c-0.23-0.0303-1.0898-0.0503-1.0898-0.0503s-3.8501,0.06-6.96,0.06
		c-3.1001,0-7.46-0.06-7.46-0.06s-0.8701,0.02-1.0898,0.0503c-0.4702,0.0498-0.8301,0.1899-0.96,2.1298
		c-0.1303,1.7598,0,2.2701,0.3999,2.4502c0.4097,0.1797,0.8897,0.3697,1.4898,0.7598c0.8203,0.5601,1.0801,1.23,0.3301,1.98
		c-0.7598,0.75-3.8999,4.0102-3.8999,4.0102l-3.8003,3.1499L316.02,35.52c-0.1098-2.0498-0.6802-2.9599-2.9101-2.9599
		l-11.8897,0.0097c-1,0-1.3804,0.19-1.6001,1.1504c-0.2002,0.8296-0.1499,1.2896-0.2402,2.2998
		c-0.0698,1.0098,0.54,1.0698,1.3203,1.4502c0.3198,0.1797,0.98,0.5298,1.2598,0.69c1.3501,0.77,1.75,1.5498,1.75,4.7197v31.5503
		c0,3.5097-1.1202,4.7099-2.1202,5.1899c-0.3398,0.1597-0.6396,0.3897-1.04,0.5601c-0.9497,0.3999-1.1299,0.8496-0.98,1.8398
		c0.0703,0.44-0.0298,1.69,0.21,2.5298c0.27,0.9502,0.54,1.1504,1.7602,1.1504h16.8301c1.21,0,1.48-0.2002,1.75-1.1504
		c0.25-0.8398,0.21-2.0898,0.2798-2.5298c0.1401-0.9902-0.0298-1.4702-0.98-1.8598c-0.4101-0.17-0.6997-0.3804-1.04-0.5401
		c-1.9697-0.9199-2.3701-2.8999-2.3701-6.1103v-2.2896l3.4204-2.79l8.9096,16.1997c0.4703,0.8701,0.6001,1.0703,1.8204,1.0703
		h10.6596c1.2202,0,1.48-0.2002,1.7603-1.1504c0.2397-0.8398,0.1997-2.0898,0.27-2.5298
		C343,81.0298,342.8301,80.5498,341.8799,80.1602L341.8799,80.1602z M363.7002,63.5l-3.3301,1.1099
		c-3.23,1.1001-4.8003,1.3203-5.54-0.7598c-0.9102-2.4902-0.0303-10.3701,4.06-11.6001c4.3301-1.3198,7.0699,0.8198,8.3897,5.2598
		c0.4902,1.6504,0.3901,3.3901-0.1597,4.0503C366.3398,62.5098,364.96,63.0801,363.7002,63.5L363.7002,63.5z M368.1602,67.8901
		c4.3999-1.6499,8.3198-3.6601,9.54-4.4799c2.1899-1.4502,2.5298-3.48,1.5498-5.67c-3.0698-6.9204-10.0601-14.1801-21.6201-11.9702
		c-9.23,1.7598-15.8101,10.0498-15.8101,19.5401c0,11.75,7.0801,18.6098,16.0801,20.75c8.3203,1.9799,18.4399-2.0899,22.4502-9.1099
		c0.6001-1.6401-1.04-4.6104-4.2202-4.3403c-1.9898,2.25-5.3897,4.77-8.1299,5.6601c-2.5801,0.8198-9.9702,1.4702-12.1299-4.6201
		c-0.5102-1.4199-0.1001-1.8398,1.0899-2.0801C357.5898,71.4399,363.3301,69.6899,368.1602,67.8901L368.1602,67.8901z"/>
	<path fill="#FFFFFF" d="M398.3901,60.6401c0-3.8701,2.1597-6.06,4.7798-6.3901c1.71-0.2202,3.9199,1.0098,3.9199,3.9302
		c0,2.5498,0,14.3398,0,20.0498c0,5.7099,4.8604,7.8999,8.6504,7.8999c4.0298,0,7.5-1.8501,9-5.0899
		c0.4497-0.9799-0.0903-1.8198-0.6001-2.3398c-0.6499-0.6304-1.0703-1.1802-2.0102-0.71c-1.1201,0.5498-2.8799,2.5498-2.8799-0.5703
		c0-3.0698-0.0801-12.8398-0.0698-20.6699c-0.0103-6.6802-3.1499-9.5498-6.6704-10.6499c-4.1499-1.3003-9.17,0.8301-11.7398,2.04
		c-1.3198,0.6299-1.9599,0.9698-1.9599,0.9698s-0.3501-0.5699-0.5-0.92c-0.42-0.9301-0.5401-1.5097-1.6802-1.5097l-12.4697,0.0097
		c-0.9903,0-1.21,0.2002-1.44,1.1499c-0.2002,0.8301-0.0801,1.5103-0.1704,2.5303c-0.0796,1,0.5303,1.0498,1.3203,1.4497
		c0.3198,0.1704,0.5698,0.4102,0.8399,0.5703c0.83,0.4698,1.3901,2.0298,1.3901,4.6099v17.4302
		c0,3.5097-1.2803,4.7099-2.2803,5.1899c-0.3398,0.1597-0.6396,0.3897-1.04,0.5601c-0.9497,0.3999-1.1196,0.8496-0.98,1.8398
		c0.0703,0.44-0.0298,1.69,0.21,2.5298c0.2802,0.9502,0.54,1.1504,1.7602,1.1504h16.8501c1.2197,0,1.48-0.2002,1.75-1.1504
		c0.25-0.8398,0.21-2.0898,0.27-2.5298c0.1499-0.9902-0.0102-1.4702-0.9599-1.8598c-0.4102-0.17-0.7105-0.3804-1.0503-0.5401
		c-1-0.48-2.23-1.6802-2.23-5.1899L398.3901,60.6401L398.3901,60.6401z"/>
	<path fill="#FFFFFF" d="M232.2998,60.6401c0-3.8701,2.1401-6.06,4.77-6.3901c1.7202-0.2202,3.9204,1.0098,3.9204,3.9302
		c0,2.5498,0,14.3398,0,20.0498c0,5.7099,4.8599,7.8999,8.6499,7.8999c4.0298,0,7.4898-1.8501,9-5.0899
		c0.4497-0.9799-0.0703-1.8198-0.6001-2.3398c-0.6401-0.6304-1.08-1.1802-2.0102-0.71c-1.1196,0.5498-2.8799,2.5498-2.8799-0.5703
		c0-3.0698-0.0698-12.8398-0.0698-20.6699c0-6.6802-3.1499-9.5498-6.6499-10.6499c-4.1704-1.3003-9.2002,0.8301-11.7603,2.04
		c-1.31,0.6299-1.9599,0.9698-1.9599,0.9698s-0.3399-0.5699-0.5-0.92c-0.4102-0.9301-0.5401-1.5097-1.67-1.5097l-12.4799,0.0097
		c-0.9903,0-1.21,0.2002-1.44,1.1499c-0.1899,0.8301-0.0801,1.5103-0.1601,2.5303c-0.0801,1,0.5302,1.0498,1.2998,1.4497
		c0.3403,0.1704,0.58,0.4102,0.8501,0.5703C219.4399,52.8599,220,54.4199,220,57v17.4302c0,3.5097-1.27,4.7099-2.29,5.1899
		c-0.3199,0.1597-0.6202,0.3897-1.0298,0.5601c-0.9502,0.3999-1.1201,0.8496-0.9702,1.8398c0.06,0.44-0.0401,1.69,0.2002,2.5298
		c0.27,0.9502,0.54,1.1504,1.75,1.1504h16.8696c1.2202,0,1.48-0.2002,1.75-1.1504c0.2402-0.8398,0.2002-2.0898,0.27-2.5298
		c0.1504-0.9902-0.02-1.4702-0.9697-1.8598c-0.3999-0.17-0.71-0.3804-1.0401-0.5401c-1.0102-0.48-2.2402-1.6802-2.2402-5.1899
		V60.6401L232.2998,60.6401z"/>
	<path fill="#FFFFFF" d="M201.2598,44.8501c3.8003,0,6.8803-2.9702,6.8803-6.6201c0-3.6602-3.08-6.6299-6.8803-6.6299
		c-3.7998,0-6.8799,2.9697-6.8799,6.6299C194.3799,41.8799,197.46,44.8501,201.2598,44.8501L201.2598,44.8501z"/>
	<path fill="#FFFFFF" d="M208.54,74.4302c0,0,0-24.8203,0-25.9204c0-0.8697-0.5102-1.3897-1.3798-1.3897c-0.96,0-12.9703,0-12.98,0
		c-0.9903,0-1.21,0.19-1.4302,1.1397c-0.2002,0.8403-0.0898,1.5102-0.1699,2.5302c-0.0801,1,0.5298,1.0601,1.2998,1.46
		c0.3403,0.1699,0.5801,0.3999,0.8501,0.5601c0.8301,0.4799,1.27,2.04,1.27,4.6201v17c0,3.5097-1.1499,4.7099-2.1699,5.1899
		c-0.3203,0.1597-0.6201,0.3897-1.0303,0.5601c-0.96,0.3999-1.1196,0.8496-0.9697,1.8398c0.06,0.44-0.0401,1.69,0.2099,2.5298
		c0.2598,0.9502,0.5298,1.1504,1.7398,1.1504H210.77c1.21,0,1.48-0.2002,1.7598-1.1504c0.2402-0.8398,0.2002-2.0898,0.27-2.5298
		c0.1401-0.9902-0.0298-1.4702-0.98-1.8598c-0.3999-0.17-0.6997-0.3804-1.04-0.5401C209.7798,79.1401,208.54,77.9399,208.54,74.4302
		L208.54,74.4302z"/>
	<path fill="#FFFFFF" d="M146.5298,73.52V44.3701c-0.0098-4.1201,0.3501-5.4199,1.77-5.98c0.8301-0.3403,2.1304-0.9399,2.54-1.1303
		c0.3804-0.1597,0.6402-0.69,0.4703-2.1397c-0.1602-1.3701-0.2901-2.1601-0.6499-2.27C150.5,32.79,150.04,32.75,149.3701,32.7402
		c-1.8403-0.04-18,0-18.0102,0c0.0102,0-1.2701,0-1.4898,0.0596c-0.3203,0.0703-0.5303,0.6201-0.6601,2.1504
		c-0.1499,1.7598,0.0102,2.1396,0.4199,2.3096c0.4101,0.1904,1.3301,0.79,1.98,1.1303c1.1001,0.5601,1.54,1.8599,1.54,5.98
		l-0.0601,7.2197c0,0.6304-0.5097,1.1202-1.1396,1.1202h-10.23c-0.6201,0-1.1201-0.4898-1.1201-1.1202l-0.0703-7.2197
		c0-4.1201,0.4604-5.4199,1.5503-5.98c0.6401-0.3403,1.5898-0.9101,1.9697-1.1303c0.79-0.44,0.2603-3.8697-0.1196-4.3399
		c-0.3003-0.3799-1.4903-0.23-1.4903-0.2397H104.29c0,0-1.1401,0.1098-1.2802,0.1699c-0.6397,0.27-1.1997,4.0601-0.3897,4.4097
		c0.4097,0.1904,1.7197,0.79,2.5401,1.1303c1.4199,0.5601,2,1.8599,2.0097,5.98V73.52c-0.0097,4.6402-1.06,5.2798-2.4199,5.9898
		c-0.98,0.5102-1.7998,0.5503-2.2998,1.29c-0.52,0.73-0.0703,4.5,0.5596,4.8203c0.2802,0.1397,1.56,0.1397,1.56,0.1397h18.5601
		c0,0,1.2402-0.0498,1.5503-0.1397c0.6899-0.1802,1.0796-4.0903,0.5796-4.8203c-0.5196-0.7397-1.3296-0.7798-2.3199-1.29
		c-1.3598-0.71-2.3999-1.3496-2.3999-5.9898l0.0601-11.6299c0-0.6201,0.5-1.1303,1.1201-1.1303h10.23
		c0.6299,0,1.1396,0.5102,1.1396,1.1303l0.0601,11.6299c0,4.6402-1.0698,5.2398-2.4097,5.9898c-0.5302,0.29-2.2602,0.81-2.58,1.2802
		c-0.3702,0.5298,0.1098,4.5298,0.79,4.8101c0.3096,0.1201,1.1396,0.1499,1.1196,0.1499h19.3701c0,0,1.1001-0.0801,1.2203-0.1299
		c0.6596-0.2803,1.0898-4.0903,0.58-4.8203c-0.5102-0.7397-1.33-0.7798-2.3203-1.29C147.5601,78.7998,146.52,78.1602,146.5298,73.52
		L146.5298,73.52z"/>
	<path fill="#FFFFFF" d="M281.48,63.5l-3.3301,1.1099c-3.23,1.1001-4.79,1.3203-5.5498-0.7598
		c-0.8999-2.4902-0.0303-10.3701,4.0601-11.6001c4.33-1.3198,7.0898,0.8198,8.3999,5.2598
		c0.4897,1.6504,0.3901,3.3901-0.1602,4.0503C284.1201,62.5098,282.73,63.0801,281.48,63.5L281.48,63.5z M285.9399,67.8901
		c4.4102-1.6499,8.3199-3.6601,9.5401-4.4799c2.2002-1.4502,2.52-3.48,1.5498-5.67c-3.0796-6.9204-10.0596-14.1801-21.6299-11.9702
		c-9.2197,1.7598-15.7998,10.0498-15.7998,19.5401c0,11.75,7.0698,18.6098,16.0801,20.75
		c8.3198,1.9799,18.4399-2.0899,22.4399-9.1099c0.6099-1.6401-1.04-4.6104-4.2202-4.3403c-1.9697,2.25-5.3799,4.77-8.1299,5.6601
		c-2.5801,0.8198-9.9702,1.4702-12.1201-4.6201c-0.5098-1.4199-0.1001-1.8398,1.1001-2.0801
		C275.3701,71.4399,281.1099,69.6899,285.9399,67.8901L285.9399,67.8901z"/>
	<path fill="#FFFFFF" d="M173.6499,63.5l-3.3198,1.1099c-3.2403,1.1001-4.8003,1.3203-5.5601-0.7598
		c-0.8999-2.4902-0.02-10.3701,4.0698-11.6001c4.3301-1.3198,7.0801,0.8198,8.3902,5.2598
		c0.4902,1.6504,0.3901,3.3901-0.1602,4.0503C176.2998,62.5098,174.9102,63.0801,173.6499,63.5L173.6499,63.5z M178.1201,67.8901
		c4.3999-1.6499,8.3101-3.6601,9.5298-4.4799c2.2002-1.4502,2.5303-3.48,1.5503-5.67
		c-3.0703-6.9204-10.0503-14.1801-21.6201-11.9702c-9.2202,1.7598-15.8101,10.0498-15.8101,19.5401
		c0,11.75,7.0698,18.6098,16.0801,20.75c8.3198,1.9799,18.4399-2.0899,22.4497-9.1099c0.6001-1.6401-1.0498-4.6104-4.23-4.3403
		c-1.9697,2.25-5.3799,4.77-8.1196,5.6601c-2.5903,0.8198-9.98,1.4702-12.1304-4.6201c-0.5097-1.4199-0.0996-1.8398,1.1001-2.0801
		C167.54,71.4399,173.29,69.6899,178.1201,67.8901L178.1201,67.8901z"/>
</g>
<g>
	<path fill="#FFFFFF" d="M419.9902,35.8301c-0.5703,0-1.3603,0-1.3603,0v-1.6802c0,0,0.6601,0,1.1802,0
		c0.52,0,1.1401,0.2202,1.1401,0.8003C420.9502,35.4502,420.5498,35.8301,419.9902,35.8301L419.9902,35.8301z M416.9399,40.1401
		h1.6802V37.29c0.0098,0,0.1099,0,0.6699,0.0298c0.8501,0.0401,1.2901,0.19,1.5401,0.98c0.1699,0.54,0.2597,1.0601,0.6001,1.8403
		c0.7397,0.0201,0.9599,0.0201,1.7397,0.0201c-0.1899-0.46-0.4697-1.0103-0.5801-1.7901c-0.1298-0.8003-0.3999-1.25-1.0097-1.6499
		c0.5498-0.2002,1.1001-0.8804,1.1001-1.8701c0-1.5503-1.6304-2.04-2.2202-2.04c-0.5899,0-3.5201,0-3.5201,0V40.1401z"/>
</g>
<g>
	<path fill="#FFFFFF" d="M419.75,42.2002c-2.96,0-5.3599-2.4004-5.3599-5.3604c0-2.9599,2.3999-5.3598,5.3599-5.3598
		s5.3501,2.3999,5.3501,5.3598C425.1001,39.7998,422.71,42.2002,419.75,42.2002L419.75,42.2002z M412.9399,36.8398
		c0,3.7603,3.0503,6.8101,6.8101,6.8101c3.7598,0,6.8101-3.0498,6.8101-6.8101c0-3.77-3.0503-6.81-6.8101-6.81
		C415.9902,30.0298,412.9399,33.0698,412.9399,36.8398L412.9399,36.8398z"/>
</g>
<g>
	<path fill="#FFFFFF" d="M89.79,51.8301c-0.2998-0.96-1.2002-1.6001-2.2099-1.6001H67.5298l-6.1997-19.0698
		c-0.3101-0.96-1.2002-1.6104-2.21-1.6104c-1.0102,0-1.9101,0.6504-2.23,1.6104L50.7002,50.23h-20.04
		c-1.0201,0-1.9102,0.6499-2.23,1.6098c-0.3101,0.96,0.0298,2.0103,0.8496,2.6104l16.23,11.7798l-6.1997,19.0698
		c-0.3199,0.96,0.0297,2.0103,0.8501,2.6104c0.81,0.5898,1.9199,0.5898,2.7397,0l16.2202-11.7901l16.21,11.7901
		c0.8198,0.5898,1.9297,0.5898,2.75,0c0.81-0.6001,1.1601-1.6504,0.8501-2.6104L72.73,66.23l16.2202-11.7798
		C89.7598,53.8501,90.1099,52.7998,89.79,51.8301L89.79,51.8301z"/>
</g>
<g>
	<path fill="#E73137" d="M59.1201,31.8799l-6.73,20.6802H30.6602L48.25,65.3398L41.52,86.02l17.6001-12.7798L76.71,86.02
		l-6.7198-20.6802l17.5899-12.7797h-21.75L59.1201,31.8799z"/>
</g>
</svg>
