<?xml version="1.0" encoding="utf-8"?>
<!-- Generator: Adobe Illustrator 27.1.0, SVG Export Plug-In . SVG Version: 6.00 Build 0)  -->
<svg version="1.1"
	 id="svg2" xmlns:inkscape="http://www.inkscape.org/namespaces/inkscape" xmlns:dc="http://purl.org/dc/elements/1.1/" xmlns:rdf="http://www.w3.org/1999/02/22-rdf-syntax-ns#" xmlns:cc="http://creativecommons.org/ns#" xmlns:svg="http://www.w3.org/2000/svg" xmlns:sodipodi="http://sodipodi.sourceforge.net/DTD/sodipodi-0.dtd" inkscape:export-filename="/Users/tevabaude/Downloads/Logo Paris 2024.png" inkscape:export-xdpi="718" inkscape:export-ydpi="718" inkscape:version="0.92.2 5c3e80d, 2017-08-06" sodipodi:docname="Logo Paris 2024.svg"
	 xmlns="http://www.w3.org/2000/svg" xmlns:xlink="http://www.w3.org/1999/xlink" x="0px" y="0px" width="131.811px"
	 height="85.0394px" viewBox="0 0 131.811 85.0394" enable-background="new 0 0 131.811 85.0394" xml:space="preserve">
<sodipodi:namedview  bordercolor="#666666" borderopacity="1" fit-margin-bottom="5" fit-margin-left="5" fit-margin-right="5" fit-margin-top="5" gridtolerance="10" guidetolerance="10" id="namedview4" inkscape:current-layer="g10" inkscape:cx="-261.47305" inkscape:cy="185.76267" inkscape:pageopacity="0" inkscape:pageshadow="2" inkscape:window-height="682" inkscape:window-maximized="1" inkscape:window-width="1280" inkscape:window-x="0" inkscape:window-y="1" inkscape:zoom="0.84096496" objecttolerance="10" pagecolor="#ffffff" showgrid="false">
	</sodipodi:namedview>
<g id="g10" transform="matrix(1.3333333,0,0,-1.3333333,-188.3856,697.58692)" inkscape:groupmode="layer" inkscape:label="Paris2024_Nouvel_embleme_Dossier_de_presse">
	<g id="g1068">
		<g id="g5524" transform="translate(151.1962,430.5627)">
			<path id="path5526" inkscape:connector-curvature="0" d="M-2.9992,89.0835c-0.7038,0.3388-1.4638,0.3781-2.2292,0.3781h-2.5117
				v-9.4525h1.4684c0,0.5351-0.0354,1.0911,0.194,1.5908c0.3704,0.8046,1.2328,1.1912,1.9858,1.5562
				c0.8077,0.3904,1.7032,0.7715,2.2392,1.5285c0.4751,0.6707,0.6045,1.5592,0.4659,2.3608
				C-1.5462,87.9616-2.173,88.6854-2.9992,89.0835 M-3.0716,85.4699c-0.3488-0.5221-0.9386-0.8154-1.4853-1.088
				c-0.5967-0.298-1.2112-0.5937-1.7148-1.0403v4.7532h1.3922c0.7792,0,1.6378-0.2395,1.9458-1.0403
				C-2.7459,86.5664-2.7782,85.9111-3.0716,85.4699"/>
		</g>
		<g id="g5528" transform="translate(165.2189,430.7137)">
			<path id="path5530" inkscape:connector-curvature="0" d="M-6.2244,89.0488c-1.272,0.7192-3.0954,0.5067-4.0787-0.6014
				c-0.4782-0.5382-0.7207-1.2312-0.7638-1.9435c-0.0108-0.1802-0.0069-6.6459-0.0069-6.6459H-9.62v3.1316
				c0.8562,0.1086,1.8149,0.0254,2.5333-0.4967c0.6437-0.4674,0.9263-1.2035,0.9279-1.9812c0-0.2179,0-0.6537,0-0.6537h1.4545
				v6.3386C-4.706,87.3594-5.1826,88.4597-6.2244,89.0488 M-6.239,83.4062c-0.8639,0.8763-2.1891,1.1827-3.3811,0.9925v1.5446
				c0,0.2841-0.0069,0.5683,0.0662,0.8462c0.1394,0.5328,0.5444,0.9725,1.068,1.1481c0.5459,0.184,1.1781,0.1009,1.6416-0.2449
				c0.4651-0.3473,0.6799-0.8809,0.6853-1.4507c0.0038-0.4435,0-0.8878,0-1.3313v-1.5962
				C-6.1859,83.3446-6.2105,83.3777-6.239,83.4062"/>
		</g>
		<g id="g5532" transform="translate(180.1765,423.3387)">
			<path id="path5534" inkscape:connector-curvature="0" d="M-9.6647,90.745c-0.1679,0.0893-0.3473,0.1632-0.5351,0.2225
				c0.4666,0.2564,0.9286,0.5729,1.2551,1.0002c0.3026,0.3965,0.4751,0.8539,0.5298,1.3483
				c0.1132,1.0364-0.2256,2.0243-1.0788,2.6565c-1.1365,0.8439-2.5741,0.713-3.9085,0.713h-1.3883V87.233h1.4684
				c0,0.2803-0.01,0.5629,0.0031,0.8431c0.0293,0.6245,0.3049,1.2274,0.8509,1.5616c0.5336,0.3257,1.262,0.3642,1.8311,0.1093
				c0.5736-0.2572,0.9456-0.8085,1.0387-1.4214c0.0547-0.3573,0.0285-0.7323,0.0285-1.0926h1.483
				c0,0.519,0.0285,1.0472-0.0862,1.5569C-8.3634,89.6301-8.9054,90.3392-9.6647,90.745 M-11.8823,95.3188
				c0.9348,0,1.8803-0.4566,1.982-1.4792c0.0493-0.492-0.0585-0.9794-0.3858-1.3575c-0.358-0.4127-0.8917-0.6622-1.3752-0.8947
				c-0.5867-0.2826-1.1758-0.5767-1.6609-1.0179v4.7494L-11.8823,95.3188L-11.8823,95.3188z"/>
		</g>
		<g id="g5536" transform="translate(188.1558,429.335)">
			<path id="path5538" inkscape:connector-curvature="0" d="M-11.4999,89.3659c0.4789,0.1278,0.9748,0.1871,1.4684,0.2179v1.1057
				h-1.4684V89.3659z"/>
		</g>
		<g id="g5540" transform="translate(188.1558,428.2586)">
			<path id="path5542" inkscape:connector-curvature="0" d="M-11.4999,89.6134v-7.3003h1.4684v7.5183
				C-10.5251,89.8106-11.0217,89.7382-11.4999,89.6134"/>
		</g>
		<g id="g5544" transform="translate(202.7925,424.6701)">
			<path id="path5546" inkscape:connector-curvature="0" d="M-14.8663,90.4388c-0.5267,0.4135-1.1573,0.6514-1.7802,0.8793
				c-0.5775,0.2102-1.2489,0.4327-1.6663,0.9094c-0.3858,0.4397-0.2995,1.1365,0.0978,1.5361
				c0.4112,0.4127,1.0711,0.5051,1.6124,0.3334c0.6114-0.1933,0.9802-0.7438,0.9802-1.3752h1.4538
				c0,0.693-0.2218,1.3591-0.6984,1.8696c-0.462,0.4943-1.0988,0.7885-1.7648,0.8755c-0.6922,0.0909-1.4099,0.0008-2.022-0.348
				c-0.5744-0.3265-1.0588-0.8455-1.2643-1.4822c-0.1964-0.6083-0.1532-1.3675,0.1594-1.9312
				c0.3488-0.6276,0.9787-1.0049,1.6216-1.2797c0.6992-0.298,1.5054-0.4812,2.1306-0.9271
				c0.2518-0.1794,0.4612-0.4096,0.5359-0.7169c0.0731-0.3003,0.0462-0.6391-0.0932-0.9163
				c-0.3396-0.6753-1.185-0.8816-1.8773-0.7484c-0.7762,0.1486-1.3367,0.797-1.3367,1.5916h-1.4399
				c0-0.7692,0.2502-1.4946,0.8008-2.042c0.5452-0.5436,1.3021-0.837,2.0621-0.8978c0.7969-0.0639,1.6193,0.0978,2.2792,0.5644
				c0.6068,0.4304,1.0164,1.0972,1.0957,1.8403C-13.8884,89.0405-14.1687,89.8905-14.8663,90.4388"/>
		</g>
		<g id="g5548" transform="translate(220.5643,424.4058)">
			<path id="path5550" inkscape:connector-curvature="0" d="M-18.9538,90.4996c0.3249,0.4035,0.6414,0.8285,0.8562,1.3028
				c0.2118,0.4682,0.288,0.9864,0.231,1.4969c-0.1086,0.9717-0.7808,1.7779-1.657,2.1783
				c-0.8955,0.4089-2.0236,0.3896-2.8998-0.0585c-0.8847-0.452-1.5192-1.3152-1.5723-2.3208
				c-0.0547-1.028,0.4235-1.9366,1.232-2.5549l0.8285,1.0611c-0.2972,0.2841-0.5328,0.6283-0.6006,1.041
				c-0.0655,0.3973,0.0023,0.7985,0.2441,1.1257c0.4743,0.6414,1.4268,0.8347,2.1314,0.4805
				c0.3519-0.1763,0.6476-0.4828,0.7739-0.8593c0.1317-0.3919,0.0693-0.8424-0.0978-1.2135
				c-0.1694-0.375-0.4389-0.6953-0.6938-1.0141c-0.9818-1.2281-1.9635-2.4555-2.9445-3.6829
				c-0.3503-0.4389-0.7015-0.8778-1.0518-1.3159h6.6459v1.3521h-3.8123L-18.9538,90.4996z"/>
		</g>
		<g id="g5552" transform="translate(238.5062,429.4107)">
			<path id="path5554" inkscape:connector-curvature="0" d="M-23.0805,89.3485c-1.4645,1.4314-3.7584,1.8164-5.6172,0.9587
				c-1.875-0.8655-3.0038-2.8559-2.809-4.9072c0.191-2.0112,1.694-3.7353,3.6475-4.2304c1.982-0.502,4.1565,0.2372,5.343,1.9188
				c1.1927,1.6909,1.1581,4.0648-0.087,5.718C-22.7486,88.9989-22.908,89.1798-23.0805,89.3485 M-23.4077,84.5275
				c-0.5737-1.3467-1.9273-2.2122-3.3942-2.1237c-1.4214,0.0847-2.6557,1.1034-3.0677,2.4578
				c-0.4227,1.3906,0.0793,2.9437,1.2328,3.8246c1.1589,0.884,2.7997,0.9155,3.9971,0.0862
				C-23.3015,87.8454-22.7694,86.029-23.4077,84.5275"/>
		</g>
		<g id="g5556" transform="translate(252.5199,424.4058)">
			<path id="path5558" inkscape:connector-curvature="0" d="M-26.3036,90.4996c0.3249,0.4035,0.6414,0.8285,0.8562,1.3028
				c0.2118,0.4682,0.288,0.9864,0.231,1.4969c-0.1093,0.9717-0.7808,1.7779-1.657,2.1783
				c-0.8955,0.4089-2.0236,0.3896-2.8998-0.0585c-0.8847-0.452-1.5192-1.3152-1.5723-2.3208
				c-0.0547-1.028,0.4227-1.9366,1.232-2.5549l0.8285,1.0611c-0.2972,0.2841-0.5328,0.6283-0.6006,1.041
				c-0.0655,0.3973,0.0015,0.7985,0.2441,1.1257c0.4743,0.6414,1.4268,0.8347,2.1314,0.4805
				c0.3519-0.1763,0.6476-0.4828,0.7738-0.8593c0.1317-0.3919,0.0693-0.8424-0.0978-1.2135
				c-0.1694-0.375-0.4389-0.6953-0.6945-1.0141c-0.981-1.2281-1.9627-2.4555-2.9437-3.6829
				c-0.3511-0.4389-0.7015-0.8778-1.0518-1.3159h6.6459v1.3521h-3.8123L-26.3036,90.4996z"/>
		</g>
		<g id="g5560" transform="translate(265.9663,427.7676)">
			<path id="path5562" inkscape:connector-curvature="0" d="M-29.3963,89.7264v-3.204c-0.6992,0.4982-1.5731,0.6499-2.3046,1.088
				c-0.6322,0.3781-0.8331,1.0395-0.8362,1.7394c-0.0038,0.6853,0,2.9067,0,2.9067h-1.4692c0,0-0.0015-1.9673,0-2.9514
				c0.0015-1.0072,0.2495-1.992,1.0742-2.6403c0.5082-0.3996,1.1196-0.646,1.7256-0.8578c0.5405-0.1894,1.115-0.4266,1.4861-0.8832
				c0.2918-0.3596,0.3242-0.79,0.3242-1.2335v-0.8862h1.4106v6.9223H-29.3963z"/>
		</g>
		<g id="g5564" transform="translate(205.5795,388.4116)">
			<path id="path5566" inkscape:connector-curvature="0" fill="#FCB030" d="M-15.5073,98.7782c0-4.2858-3.4766-7.7616-7.7624-7.7616
				c-4.2866,0-7.7601,3.4758-7.7601,7.7616c0,4.2866,3.4735,7.7608,7.7601,7.7608
				C-18.9839,106.5391-15.5073,103.0648-15.5073,98.7782 M-23.2697,105.2455c-3.5713,0-6.4665-2.896-6.4665-6.4672
				s2.8952-6.4672,6.4665-6.4672c3.5728,0,6.4688,2.896,6.4688,6.4672S-19.6969,105.2455-23.2697,105.2455"/>
		</g>
		<g id="g5568" transform="translate(227.4189,388.4116)">
			<path id="path5570" inkscape:connector-curvature="0" fill="#00A652" d="M-20.5304,98.7782c0-4.2858-3.4758-7.7616-7.7616-7.7616
				c-4.2866,0-7.7616,3.4758-7.7616,7.7616c0,4.2866,3.475,7.7608,7.7616,7.7608
				C-24.0062,106.5391-20.5304,103.0648-20.5304,98.7782 M-28.292,105.2455c-3.5728,0-6.4672-2.896-6.4672-6.4672
				s2.8944-6.4672,6.4672-6.4672c3.572,0,6.468,2.896,6.468,6.4672S-24.72,105.2455-28.292,105.2455"/>
		</g>
		<g id="g5572" transform="translate(184.5818,407.7274)">
			<path id="path5574" inkscape:connector-curvature="0" fill="#0082C7" d="M-10.6779,94.3356
				c-4.2874,0-7.7616-3.4727-7.7616-7.7593c0-4.2858,3.4742-7.7608,7.7616-7.7608c0.2264,0,0.4489,0.0131,0.6714,0.0316
				c-0.0154,0.2025-0.0262,0.4081-0.0262,0.6152c0,0.2318,0.0131,0.4566,0.0316,0.6815c-0.2233-0.0216-0.4481-0.0331-0.6768-0.0331
				c-3.5728,0-6.4688,2.8937-6.4688,6.4657c0,3.5728,2.896,6.4688,6.4688,6.4688c3.5713,0,6.4672-2.896,6.4672-6.4688
				c0-2.8682-1.868-5.2984-4.4552-6.1454c-0.047-0.3165-0.0731-0.6406-0.0731-0.9687c0-0.1348,0.0054-0.2649,0.0131-0.3981
				c3.341,0.8678,5.8073,3.9031,5.8073,7.5121C-2.9186,90.8629-6.3921,94.3356-10.6779,94.3356"/>
		</g>
		<g id="g5576" transform="translate(228.2572,407.7294)">
			<path id="path5578" inkscape:connector-curvature="0" fill="#E8384F" d="M-20.7232,94.3352c-4.0779,0-7.419-3.1447-7.7339-7.1425
				c0.4374-0.0377,0.8655-0.1109,1.2797-0.2202c0.2056,3.3865,3.0169,6.0707,6.4541,6.0707c3.5736,0,6.4688-2.896,6.4688-6.4672
				c0-3.5736-2.8952-6.4672-6.4688-6.4672c-3.2409,0-5.9282,2.3862-6.3941,5.4978c-0.4266,0.1394-0.8747,0.2348-1.3352,0.2841
				c0.3457-3.964,3.6744-7.0771,7.7293-7.0771c4.2858,0,7.7608,3.475,7.7608,7.7624
				C-12.9624,90.8609-16.4374,94.3352-20.7232,94.3352"/>
		</g>
		<g id="g5580" transform="translate(206.4196,407.7294)">
			<path id="path5582" inkscape:connector-curvature="0" d="M-15.7006,94.3352c-4.0795,0-7.4213-3.1485-7.7354-7.1425
				c0.4389-0.0393,0.8655-0.114,1.2813-0.2202c0.2056,3.3865,3.0153,6.0707,6.4541,6.0707c3.572,0,6.4672-2.896,6.4672-6.4672
				c0-2.8698-1.868-5.2999-4.4537-6.1469c-0.0462-0.318-0.0732-0.6406-0.0732-0.9687c0-0.134,0.0039-0.2649,0.0131-0.3981
				c3.3395,0.8678,5.8073,3.9031,5.8073,7.5137C-7.9397,90.8609-11.414,94.3352-15.7006,94.3352"/>
		</g>
		<g id="g5584" transform="translate(207.2594,388.4116)">
			<path id="path5586" inkscape:connector-curvature="0" d="M-15.8937,98.7782c0,0.2318,0.0115,0.4566,0.0316,0.6814
				c-0.2241-0.0216-0.4497-0.0331-0.6784-0.0331c-3.2432,0-5.9282,2.3862-6.3972,5.497c-0.4266,0.1401-0.8716,0.2348-1.3321,0.2834
				c0.3457-3.9624,3.6737-7.0755,7.7293-7.0755c0.2264,0,0.4504,0.0131,0.6714,0.0316
				C-15.886,98.3655-15.8937,98.5711-15.8937,98.7782"/>
		</g>
	</g>
</g>
</svg>
