<?xml version="1.0" encoding="utf-8"?>
<!-- Generator: Adobe Illustrator 27.1.0, SVG Export Plug-In . SVG Version: 6.00 Build 0)  -->
<svg version="1.1" xmlns="http://www.w3.org/2000/svg" xmlns:xlink="http://www.w3.org/1999/xlink" x="0px" y="0px"
	 width="131.811px" height="170.0787px" viewBox="0 0 131.811 170.0787" enable-background="new 0 0 131.811 170.0787"
	 xml:space="preserve">
<g id="svg2" xmlns:inkscape="http://www.inkscape.org/namespaces/inkscape" xmlns:dc="http://purl.org/dc/elements/1.1/" xmlns:rdf="http://www.w3.org/1999/02/22-rdf-syntax-ns#" xmlns:cc="http://creativecommons.org/ns#" xmlns:svg="http://www.w3.org/2000/svg" xmlns:sodipodi="http://sodipodi.sourceforge.net/DTD/sodipodi-0.dtd" inkscape:export-filename="/Users/tevabaude/Downloads/Logo Paris 2024.png" inkscape:export-xdpi="718" inkscape:export-ydpi="718" inkscape:version="0.92.2 5c3e80d, 2017-08-06" sodipodi:docname="Logo Paris 2024.svg">
	
		<sodipodi:namedview  bordercolor="#666666" borderopacity="1" fit-margin-bottom="5" fit-margin-left="5" fit-margin-right="5" fit-margin-top="5" gridtolerance="10" guidetolerance="10" id="namedview4" inkscape:current-layer="g10" inkscape:cx="-261.47305" inkscape:cy="185.76267" inkscape:pageopacity="0" inkscape:pageshadow="2" inkscape:window-height="682" inkscape:window-maximized="1" inkscape:window-width="1280" inkscape:window-x="0" inkscape:window-y="1" inkscape:zoom="0.84096496" objecttolerance="10" pagecolor="#ffffff" showgrid="false">
		</sodipodi:namedview>
	
		<g id="g10_00000163761269996980717540000011210137548554029466_" transform="matrix(1.3333333,0,0,-1.3333333,-188.3856,697.58692)" inkscape:groupmode="layer" inkscape:label="Paris2024_Nouvel_embleme_Dossier_de_presse">
		<g id="g1068_00000102533143975881840670000001141861237271796411_">
			<g id="g5524_00000135649997205394079630000009164060334798626726_" transform="translate(151.1962,430.5627)">
				<path fill="cmyk(0%, 0%, 0%, 100%)"  id="path5526_00000096039604685434003870000009314909934998338195_" inkscape:connector-curvature="0" d="M-2.5578,24.9023
					c-0.6965,0.3353-1.4486,0.3741-2.206,0.3741h-2.4857v-9.3544h1.4531c0,0.5296-0.0351,1.0798,0.192,1.5743
					c0.3665,0.7963,1.22,1.1788,1.9652,1.54c0.7993,0.3863,1.6856,0.7635,2.2159,1.5126c0.4702,0.6637,0.5982,1.5431,0.461,2.3363
					C-1.1199,23.7921-1.7402,24.5084-2.5578,24.9023 M-2.6294,21.3262c-0.3452-0.5166-0.9289-0.807-1.4699-1.0767
					c-0.5906-0.2949-1.1986-0.5875-1.697-1.0295v4.7039h1.3777c0.7712,0,1.6208-0.237,1.9256-1.0295
					C-2.3071,22.4113-2.3391,21.7629-2.6294,21.3262"/>
			</g>
			<g id="g5528_00000018235940690461504140000001854578992927396768_" transform="translate(165.2189,430.7137)">
				<path fill="cmyk(0%, 0%, 0%, 100%)" id="path5530_00000176015026668859945080000017206471852791720576_" inkscape:connector-curvature="0" d="M-5.8951,24.8664
					c-1.2588,0.7117-3.0633,0.5014-4.0364-0.5951c-0.4732-0.5326-0.7132-1.2185-0.7559-1.9233
					c-0.0107-0.1783-0.0069-6.5769-0.0069-6.5769h1.4387v3.0991c0.8474,0.1074,1.7961,0.0251,2.507-0.4915
					c0.637-0.4625,0.9167-1.191,0.9182-1.9606c0-0.2156,0-0.6469,0-0.6469h1.4394v6.2728
					C-4.3924,23.1945-4.8641,24.2835-5.8951,24.8664 M-5.9096,19.2824c-0.855,0.8672-2.1664,1.1704-3.346,0.9822v1.5286
					c0,0.2812-0.0069,0.5624,0.0655,0.8374c0.1379,0.5273,0.5387,0.9624,1.0569,1.1362c0.5403,0.1821,1.1659,0.0998,1.6246-0.2423
					c0.4603-0.3437,0.6729-0.8717,0.6782-1.4356c0.0038-0.4389,0-0.8786,0-1.3175v-1.5796
					C-5.857,19.2214-5.8814,19.2542-5.9096,19.2824"/>
			</g>
			<g id="g5532_00000054982047698727601840000005055352481604762766_" transform="translate(180.1765,423.3387)">
				<path fill="cmyk(0%, 0%, 0%, 100%)" id="path5534_00000166660928658984821930000001964027803006964411_" inkscape:connector-curvature="0" d="M-9.4549,26.6216
					c-0.1661,0.0884-0.3437,0.1615-0.5296,0.2202c0.4618,0.2537,0.919,0.5669,1.2421,0.9898
					c0.2995,0.3924,0.4702,0.8451,0.5243,1.3343c0.112,1.0257-0.2233,2.0033-1.0676,2.6289
					c-1.1247,0.8352-2.5474,0.7056-3.8679,0.7056h-1.3739v-9.3544h1.4531c0,0.2774-0.0099,0.557,0.003,0.8344
					c0.029,0.618,0.3018,1.2146,0.842,1.5454c0.5281,0.3223,1.2489,0.3604,1.8121,0.1082c0.5677-0.2545,0.9357-0.8001,1.0279-1.4067
					c0.0541-0.3536,0.0282-0.7247,0.0282-1.0813h1.4676c0,0.5136,0.0282,1.0363-0.0853,1.5408
					C-8.1671,25.5182-8.7036,26.22-9.4549,26.6216 M-11.6495,31.1479c0.9251,0,1.8608-0.4519,1.9614-1.4638
					c0.0488-0.4869-0.0579-0.9693-0.3818-1.3434c-0.3543-0.4084-0.8824-0.6553-1.3609-0.8855
					c-0.5806-0.2797-1.1636-0.5707-1.6437-1.0074v4.7001H-11.6495z"/>
			</g>
			<g id="g5536_00000131328775297060037360000001064754752321213076_" transform="translate(188.1558,429.335)">
				<path fill="cmyk(0%, 0%, 0%, 100%)" id="path5538_00000130619194537495922510000010766972335745463741_" inkscape:connector-curvature="0" d="
					M-11.3539,25.1945c0.474,0.1265,0.9647,0.1852,1.4531,0.2156v1.0942h-1.4531V25.1945z"/>
			</g>
			<g id="g5540_00000092448690098292444150000008424013000338563754_" transform="translate(188.1558,428.2586)">
				<path fill="cmyk(0%, 0%, 0%, 100%)" id="path5542_00000132775894135445747090000013011581128164095399_" inkscape:connector-curvature="0" d="
					M-11.3539,25.4507v-7.2246h1.4531v7.4402C-10.3892,25.6458-10.8807,25.5741-11.3539,25.4507"/>
			</g>
			<g id="g5544_00000176003670678449878350000014735236375150454666_" transform="translate(202.7925,424.6701)">
				<path fill="cmyk(0%, 0%, 0%, 100%)" id="path5546_00000176015696613770369280000011095906373890622628_" inkscape:connector-curvature="0" d="
					M-14.8373,26.3047c-0.5212,0.4092-1.1453,0.6447-1.7618,0.8702c-0.5715,0.208-1.236,0.4282-1.649,0.8999
					c-0.3818,0.4351-0.2964,1.1247,0.0968,1.5202c0.4069,0.4084,1.06,0.4999,1.5956,0.3299c0.605-0.1913,0.97-0.7361,0.97-1.3609
					h1.4387c0,0.6858-0.2195,1.3449-0.6911,1.8502c-0.4572,0.4892-1.0874,0.7803-1.7465,0.8664
					c-0.685,0.0899-1.3952,0.0008-2.001-0.3444c-0.5685-0.3231-1.0478-0.8367-1.2512-1.4669
					c-0.1943-0.602-0.1516-1.3533,0.1577-1.9111c0.3452-0.621,0.9685-0.9944,1.6048-1.2665
					c0.6919-0.2949,1.4897-0.4763,2.1085-0.9175c0.2492-0.1775,0.4564-0.4054,0.5304-0.7094
					c0.0724-0.2972,0.0457-0.6325-0.0922-0.9068c-0.336-0.6683-1.1727-0.8725-1.8578-0.7407
					c-0.7681,0.1471-1.3228,0.7887-1.3228,1.5751h-1.425c0-0.7612,0.2477-1.4791,0.7925-2.0208
					c0.5395-0.538,1.2886-0.8283,2.0407-0.8885c0.7887-0.0632,1.6025,0.0968,2.2555,0.5585
					c0.6005,0.426,1.0058,1.0859,1.0843,1.8212C-13.8696,24.9209-14.147,25.7622-14.8373,26.3047"/>
			</g>
			<g id="g5548_00000089561199534932294580000005490381471804377247_" transform="translate(220.5643,424.4058)">
				<path fill="cmyk(0%, 0%, 0%, 100%)" id="path5550_00000030448403838368522730000015960076911103153841_" inkscape:connector-curvature="0" d="
					M-19.0669,26.3676c0.3216,0.3993,0.6348,0.8199,0.8474,1.2893c0.2096,0.4633,0.285,0.9761,0.2286,1.4813
					c-0.1074,0.9617-0.7727,1.7595-1.6398,2.1557c-0.8862,0.4046-2.0026,0.3856-2.8697-0.0579
					c-0.8755-0.4473-1.5034-1.3015-1.556-2.2967c-0.0541-1.0173,0.4191-1.9164,1.2192-2.5283l0.8199,1.05
					c-0.2941,0.2812-0.5273,0.6218-0.5944,1.0302c-0.0648,0.3932,0.0023,0.7902,0.2416,1.1141
					c0.4694,0.6348,1.412,0.826,2.1092,0.4755c0.3482-0.1745,0.6408-0.4778,0.7658-0.8504
					c0.1303-0.3879,0.0686-0.8336-0.0968-1.2009c-0.1676-0.3711-0.4343-0.6881-0.6866-1.0036
					c-0.9716-1.2154-1.9431-2.43-2.9139-3.6447c-0.3467-0.4343-0.6942-0.8687-1.0409-1.3023h6.5769v1.3381h-3.7727L-19.0669,26.3676
					z"/>
			</g>
			<g id="g5552_00000163043123601097744070000016520332420308274816_" transform="translate(238.5062,429.4107)">
				<path fill="cmyk(0%, 0%, 0%, 100%)" id="path5554_00000129195032723899090600000006491361710220853919_" inkscape:connector-curvature="0" d="
					M-23.3369,25.1765c-1.4493,1.4166-3.7194,1.7976-5.5588,0.9487c-1.8555-0.8565-2.9726-2.8263-2.7798-4.8563
					c0.189-1.9904,1.6764-3.6965,3.6096-4.1865c1.9614-0.4968,4.1133,0.2347,5.2876,1.8989
					c1.1803,1.6734,1.1461,4.0226-0.0861,5.6587C-23.0085,24.8305-23.1663,25.0096-23.3369,25.1765 M-23.6608,20.4056
					c-0.5677-1.3328-1.9073-2.1892-3.3589-2.1016c-1.4067,0.0838-2.6282,1.092-3.0358,2.4323
					c-0.4183,1.3762,0.0785,2.9132,1.22,3.7849c1.1468,0.8748,2.7707,0.906,3.9556,0.0853
					C-23.5556,23.6891-23.0291,21.8915-23.6608,20.4056"/>
			</g>
			<g id="g5556_00000127004395207571400990000010076735755924383386_" transform="translate(252.5199,424.4058)">
				<path fill="cmyk(0%, 0%, 0%, 100%)" id="path5558_00000129188539055277440120000008375648320318955955_" inkscape:connector-curvature="0" d="
					M-26.6721,26.3676c0.3216,0.3993,0.6348,0.8199,0.8474,1.2893c0.2096,0.4633,0.285,0.9761,0.2286,1.4813
					c-0.1082,0.9617-0.7727,1.7595-1.6398,2.1557c-0.8862,0.4046-2.0026,0.3856-2.8697-0.0579
					c-0.8755-0.4473-1.5034-1.3015-1.556-2.2967c-0.0541-1.0173,0.4183-1.9164,1.2192-2.5283l0.8199,1.05
					c-0.2941,0.2812-0.5273,0.6218-0.5944,1.0302c-0.0648,0.3932,0.0015,0.7902,0.2416,1.1141
					c0.4694,0.6348,1.412,0.826,2.1092,0.4755c0.3482-0.1745,0.6408-0.4778,0.7658-0.8504
					c0.1303-0.3879,0.0686-0.8336-0.0968-1.2009c-0.1676-0.3711-0.4343-0.6881-0.6873-1.0036
					c-0.9708-1.2154-1.9424-2.43-2.9132-3.6447c-0.3475-0.4343-0.6942-0.8687-1.0409-1.3023h6.5769v1.3381h-3.7727L-26.6721,26.3676
					z"/>
			</g>
			<g id="g5560_00000121982899181152651380000008389982205025256064_" transform="translate(265.9663,427.7676)">
				<path fill="cmyk(0%, 0%, 0%, 100%)" id="path5562_00000115514379704979524770000009080593770581231503_" inkscape:connector-curvature="0" d="
					M-29.8723,25.5675v-3.1707c-0.6919,0.493-1.5568,0.6431-2.2807,1.0767c-0.6256,0.3741-0.8245,1.0287-0.8275,1.7214
					c-0.0038,0.6782,0,2.8766,0,2.8766h-1.4539c0,0-0.0015-1.9469,0-2.9208c0.0015-0.9967,0.2469-1.9713,1.063-2.6129
					c0.5029-0.3955,1.108-0.6393,1.7077-0.8489c0.5349-0.1875,1.1034-0.4222,1.4707-0.874
					c0.2888-0.3559,0.3208-0.7818,0.3208-1.2207v-0.8771h1.396v6.8504H-29.8723z"/>
			</g>
			<g id="g5564_00000107590730788464103750000006641023874785540995_" transform="translate(205.5795,388.4116)">
				<path id="path5566_00000096770677163447327980000014966738283605052820_" inkscape:connector-curvature="0" fill="#F9AF33" d="
					M-15.5006,34.934c0-4.2413-3.4405-7.681-7.6818-7.681c-4.2421,0-7.6795,3.4397-7.6795,7.681
					c0,4.2421,3.4374,7.6803,7.6795,7.6803C-18.9411,42.6143-15.5006,39.1761-15.5006,34.934 M-23.1824,41.3341
					c-3.5342,0-6.3993-2.8659-6.3993-6.4001c0-3.5342,2.8651-6.4001,6.3993-6.4001c3.5357,0,6.4016,2.8659,6.4016,6.4001
					C-16.7808,38.4682-19.6467,41.3341-23.1824,41.3341"/>
			</g>
			<g id="g5568_00000108280955442781786440000014290992124728060824_" transform="translate(227.4189,388.4116)">
				<path id="path5570_00000132767184355319704170000007736708041946523550_" inkscape:connector-curvature="0" fill="#07A652" d="
					M-20.6983,34.934c0-4.2413-3.4397-7.681-7.681-7.681c-4.2421,0-7.681,3.4397-7.681,7.681c0,4.2421,3.4389,7.6803,7.681,7.6803
					C-24.138,42.6143-20.6983,39.1761-20.6983,34.934 M-28.3793,41.3341c-3.5357,0-6.4001-2.8659-6.4001-6.4001
					c0-3.5342,2.8644-6.4001,6.4001-6.4001c3.535,0,6.4009,2.8659,6.4009,6.4001C-21.9784,38.4682-24.8443,41.3341-28.3793,41.3341"
					/>
			</g>
			<g id="g5572_00000157298241638485039220000002237192251416149947_" transform="translate(184.5818,407.7274)">
				<path id="path5574_00000006675196322638321460000008787589193971945095_" inkscape:connector-curvature="0" fill="#0982C5" d="
					M-10.5033,30.337c-4.2429,0-7.681-3.4367-7.681-7.6787c0-4.2413,3.4382-7.6803,7.681-7.6803c0.224,0,0.4443,0.013,0.6645,0.0312
					c-0.0152,0.2004-0.0259,0.4039-0.0259,0.6088c0,0.2294,0.013,0.4519,0.0312,0.6744c-0.221-0.0213-0.4435-0.0328-0.6698-0.0328
					c-3.5357,0-6.4016,2.8636-6.4016,6.3986c0,3.5357,2.8659,6.4016,6.4016,6.4016c3.5342,0,6.4001-2.8659,6.4001-6.4016
					c0-2.8385-1.8486-5.2434-4.409-6.0816c-0.0465-0.3132-0.0724-0.634-0.0724-0.9586c0-0.1334,0.0053-0.2621,0.013-0.394
					c3.3063,0.8588,5.7471,3.8626,5.7471,7.4341C-2.8246,26.9003-6.262,30.337-10.5033,30.337"/>
			</g>
			<g id="g5576_00000081621337695344028360000005687602681969215165_" transform="translate(228.2572,407.7294)">
				<path id="path5578_00000159467590968609958340000013719297976762157469_" inkscape:connector-curvature="0" fill="#E7384F" d="
					M-20.8978,30.3365c-4.0356,0-7.3419-3.112-7.6536-7.0684c0.4328-0.0373,0.8565-0.1097,1.2665-0.2179
					c0.2035,3.3513,2.9855,6.0077,6.3871,6.0077c3.5365,0,6.4016-2.8659,6.4016-6.4001c0-3.5365-2.8651-6.4001-6.4016-6.4001
					c-3.2073,0-5.8667,2.3615-6.3277,5.4407c-0.4222,0.1379-0.8656,0.2324-1.3213,0.2812c0.3421-3.9228,3.6363-7.0036,7.649-7.0036
					c4.2413,0,7.6803,3.4389,7.6803,7.6818C-13.2175,26.8983-16.6564,30.3365-20.8978,30.3365"/>
			</g>
			<g id="g5580_00000178205197272804841590000006747962282731776156_" transform="translate(206.4196,407.7294)">
				<path fill="cmyk(0%, 0%, 0%, 100%)" id="path5582_00000157266432464444308450000016411094465585164423_" inkscape:connector-curvature="0" d="
					M-15.7006,30.3365c-4.0371,0-7.3442-3.1158-7.6551-7.0684c0.4343-0.0389,0.8565-0.1128,1.268-0.2179
					c0.2035,3.3513,2.984,6.0077,6.3871,6.0077c3.535,0,6.4001-2.8659,6.4001-6.4001c0-2.84-1.8486-5.2449-4.4074-6.0831
					c-0.0457-0.3147-0.0724-0.634-0.0724-0.9586c0-0.1326,0.0038-0.2621,0.013-0.394c3.3048,0.8588,5.7471,3.8626,5.7471,7.4357
					C-8.0203,26.8983-11.4585,30.3365-15.7006,30.3365"/>
			</g>
			<g id="g5584_00000078754375882798002400000012039384706687281291_" transform="translate(207.2594,388.4116)">
				<path fill="cmyk(0%, 0%, 0%, 100%)" id="path5586_00000125569770632575845830000003895411756855699331_" inkscape:connector-curvature="0" d="M-15.9004,34.934
					c0,0.2294,0.0114,0.4519,0.0312,0.6744c-0.2217-0.0213-0.445-0.0328-0.6713-0.0328c-3.2096,0-5.8667,2.3615-6.3308,5.44
					c-0.4222,0.1387-0.8626,0.2324-1.3183,0.2804c0.3421-3.9213,3.6355-7.0021,7.649-7.0021c0.224,0,0.4458,0.013,0.6645,0.0312
					C-15.8928,34.5256-15.9004,34.729-15.9004,34.934"/>
			</g>
			<g id="g5588_00000145048414128479994780000002073920004971856539_" transform="translate(210.7446,452.0781)">
				<path id="path5590_00000124120034357864693480000014720563452709898908_" inkscape:connector-curvature="0" fill="#D7C378" d="
					M-16.7299,19.7818c-0.8032,0.2987-2.1542,0.3261-3.2964-0.6035c-1.1422,0.9296-2.4933,0.9022-3.2964,0.6035
					c-0.6713-0.2499-1.1979-0.4168-2.187-0.4084c0.9799-2.0429,3.0678-3.4519,5.4834-3.4519s4.5035,1.409,5.4834,3.4519
					C-15.532,19.365-16.0586,19.5319-16.7299,19.7818"/>
			</g>
			<g id="g5592_00000084506698778932457710000011046714486466784941_" transform="translate(206.4196,519.4402)">
				<path id="path5594_00000042014874380344288610000001712552783642122406_" inkscape:connector-curvature="0" fill="#D7C378" d="
					M-15.7006,3.7501c-16.5317,0-29.9347-13.4022-29.9347-29.9347c0-14.171,9.8489-26.0431,23.0751-29.1445
					c-10.5104,5.6228-14.7959,18.516-9.7278,29.3159c0.8192-4.265,3.5997-8.0651,7.7542-10.0372
					c-5.4186,12.6737-1.4288,27.5725,9.7537,35.8121C-16.98-7.7707-13.6012-14.663-6.3538-19.8668
					c8.2899-5.9513,8.6404-18.0954,1.3244-24.6601c2.9063,0.6767,5.6099,2.2769,7.6292,4.7267
					C1.3539-46.2193-2.671-52.0273-8.8425-55.3291c13.2269,3.1014,23.0751,14.9734,23.0751,29.1445
					C14.2326-9.6521,0.8312,3.7501-15.7006,3.7501"/>
			</g>
			<g id="g5596_00000013897117748693308810000007352055380044737681_" transform="translate(235.0679,444.4763)">
				<path id="path5598_00000122697699775214629250000009954113728802038930_" inkscape:connector-curvature="0" fill="#D7C378" d="
					M-22.5187,21.591h0.5654v-1.9576h0.272v1.9576h0.5654v0.2553h-1.4029V21.591z M-18.6134,21.8463
					c-0.4222,0-0.759-0.1836-0.9228-0.4869c-0.1631,0.3033-0.4999,0.4869-0.9228,0.4869h-0.1463v-2.2129h0.2728v1.9401h0.0099
					c0.3955,0,0.6508-0.2789,0.6508-0.7079v-0.5509h0.272v0.5509c0,0.429,0.2553,0.7079,0.65,0.7079h0.0099v-1.9401h0.2728v2.2129
					H-18.6134z"/>
			</g>
		</g>
	</g>
</g>
</svg>
