<?xml version="1.0" encoding="utf-8"?>
<!-- Generator: Adobe Illustrator 27.1.0, SVG Export Plug-In . SVG Version: 6.00 Build 0)  -->
<svg version="1.1" id="Calque_1" xmlns="http://www.w3.org/2000/svg" xmlns:xlink="http://www.w3.org/1999/xlink" x="0px" y="0px"
	 width="100px" height="16.8986px" viewBox="0 0 100 16.8986" enable-background="new 0 0 100 16.8986" xml:space="preserve">
<g>
	<rect x="5.3225" y="2.6543" fill="#1D1D1B" width="12.92" height="11.59"/>
	<rect x="4.3725" y="1.7043" fill="#D42E1A" width="14.82" height="13.49"/>
	<polygon fill="#FFFFFF" points="6.0825,5.1243 6.0825,5.1243 7.6025,3.7943 10.2625,3.7943 11.5925,5.1243 11.5925,7.0243 
		9.1225,7.0243 9.1225,5.6943 8.7425,5.6943 8.7425,7.5943 10.2625,7.9743 11.5925,9.1143 11.5925,12.3443 10.2625,13.4843 
		7.4125,13.4843 6.0825,12.3443 6.0825,10.6343 8.7425,10.6343 8.7425,11.9643 9.1225,11.9643 9.1225,9.6843 7.7925,9.6843 
		6.0825,8.3543 	"/>
	<polygon fill="#FFFFFF" points="12.1625,5.1243 12.1625,5.1243 13.4925,3.6043 16.1525,3.6043 17.6725,5.1243 17.6725,12.3443 
		16.3425,13.4843 13.4925,13.4843 12.1625,12.3443 	"/>
	<rect x="14.6325" y="5.5043" fill="#D42E1A" width="0.57" height="6.27"/>
	<path fill="#1D1D1B" d="M23.3725,12.5343h1.14v-6.84h-1.14V12.5343z M23.3725,4.7443h1.14v-1.33h-1.14V4.7443z"/>
	<path fill="#1D1D1B" d="M26.7925,5.6943h0.95l0.19,0.57c0.38-0.38,0.95-0.76,2.47-0.76c2.28,0,2.47,1.14,2.47,2.85v4.18h-1.14
		v-3.99c0-1.14-0.19-1.9-1.71-1.9c-1.71,0-2.09,0.95-2.09,2.09v3.8h-1.14C26.7925,12.5343,26.7925,5.6943,26.7925,5.6943z"/>
	<path fill="#1D1D1B" d="M34.3925,5.6943h1.33v-0.57c0-1.33,0.38-2.28,2.28-2.28h0.76v1.14h-0.57c-0.95,0-1.14,0.57-1.14,1.14v0.57
		h1.71v1.14h-1.71v5.89h-1.33v-5.89h-1.33V5.6943z"/>
	<path fill="#1D1D1B" d="M39.7125,9.1143c0-2.28,0.95-3.61,3.42-3.61s3.42,1.33,3.42,3.61s-0.95,3.61-3.42,3.61
		S39.7125,11.3943,39.7125,9.1143 M45.2225,9.1143c0-1.52-0.57-2.47-2.28-2.47c-1.71,0-2.28,0.95-2.28,2.47s0.57,2.47,2.28,2.47
		C44.6525,11.5843,45.2225,10.8243,45.2225,9.1143"/>
	<path fill="#1D1D1B" d="M49.9725,9.8743c-0.19,0.19-0.19,0.19-0.19,0.38c0,0.38,0.38,0.38,1.33,0.38c2.66,0,3.42,0.38,3.42,1.9
		s-0.95,2.09-3.42,2.09c-2.28,0-3.23-0.38-3.23-1.71c0-0.76,0.38-1.52,1.33-1.71c-0.19-0.19-0.38-0.38-0.38-0.76
		c0-0.38,0.19-0.76,0.38-0.95c-0.57-0.38-0.76-0.95-0.76-1.71c0-1.52,0.95-2.28,3.04-2.28c0.19,0,0.38,0,0.38,0l2.66-0.38v0.95
		h-1.14c0.57,0.38,0.95,0.76,0.95,1.71c0,1.52-0.95,2.28-3.04,2.28C50.5425,10.0643,50.1625,10.0643,49.9725,9.8743
		 M53.2025,12.7243c0-0.76-0.57-0.95-2.28-0.95c-1.9,0-2.09,0.38-2.09,0.95c0,0.76,0.57,0.95,2.09,0.95
		C52.8225,13.8643,53.2025,13.4843,53.2025,12.7243 M52.8225,7.7843c0-0.95-0.57-1.14-1.71-1.14c-1.33,0-1.71,0.38-1.71,1.14
		c0,0.95,0.57,1.33,1.71,1.33C52.2525,9.1143,52.8225,8.7343,52.8225,7.7843"/>
	<path fill="#1D1D1B" d="M56.2425,5.6943h0.95l0.19,0.76c0.19-0.57,1.14-0.95,2.28-0.95v1.14c-1.71,0-2.28,0.95-2.28,2.09v3.61
		h-1.14V5.6943z"/>
	<path fill="#1D1D1B" d="M60.4225,10.6343c0-1.9,1.14-2.47,4.56-2.47h0.38c0-0.95-0.19-1.52-1.71-1.52c-0.95,0-1.52,0.38-2.09,0.57
		l-0.57-0.95c0.38-0.38,1.52-0.76,2.85-0.76c2.28,0,2.85,0.76,2.85,2.85v2.47c0,0.76,0,0.76,0.76,0.76v1.14c0,0-0.19,0-0.57,0
		c-0.76,0-0.95-0.19-1.14-0.76c-0.38,0.57-1.14,0.95-2.66,0.95C60.9925,12.7243,60.4225,11.7743,60.4225,10.6343 M65.3625,9.4943
		v-0.38h-0.38c-2.85,0-3.42,0.38-3.42,1.33c0,0.76,0.38,1.14,1.52,1.14C64.7925,11.5843,65.3625,11.0143,65.3625,9.4943"/>
	<path fill="#1D1D1B" d="M68.9725,5.6943h0.95l0.19,0.76c0.38-0.57,1.14-0.95,2.66-0.95c2.28,0,3.04,1.52,3.04,3.61
		s-0.57,3.61-3.04,3.61c-1.52,0-2.09-0.19-2.47-0.76v2.85h-1.14v-9.12H68.9725z M74.4825,9.1143c0-1.52-0.38-2.47-2.09-2.47
		c-1.71,0-2.28,0.57-2.28,2.47s0.57,2.47,2.28,2.47C74.1025,11.5843,74.4825,10.6343,74.4825,9.1143"/>
	<path fill="#1D1D1B" d="M77.5225,2.8443h1.14v3.42c0.19-0.38,0.95-0.76,2.47-0.76c2.28,0,2.47,1.14,2.47,2.85v4.18h-1.14v-3.99
		c0-1.14-0.19-1.9-1.71-1.9c-1.71,0-2.09,0.95-2.09,2.09v3.8h-1.14V2.8443z"/>
	<path fill="#1D1D1B" d="M85.6925,3.4143h1.33v1.52h-1.14v-1.52H85.6925z M85.6925,5.6943h1.33v7.03h-1.14v-7.03H85.6925z"/>
	<path fill="#1D1D1B" d="M88.7325,9.1143c0-2.09,0.57-3.61,3.42-3.61s3.04,1.9,2.85,4.18h-5.13c0,1.33,0.57,2.09,2.28,2.09
		c1.14,0,1.71-0.38,2.28-0.76l0.57,0.76c-0.76,0.57-1.52,0.95-2.85,0.95C89.3025,12.7243,88.7325,11.2043,88.7325,9.1143
		 M90.0625,8.5443h3.99c0-1.14-0.19-1.9-1.9-1.9C90.6325,6.6443,90.0625,7.4043,90.0625,8.5443"/>
</g>
</svg>
